G04*
G04 #@! TF.GenerationSoftware,Altium Limited,Altium Designer,23.11.1 (41)*
G04*
G04 Layer_Color=65535*
%FSLAX25Y25*%
%MOIN*%
G70*
G04*
G04 #@! TF.SameCoordinates,116AF878-A71F-484F-92B7-8D16203D6036*
G04*
G04*
G04 #@! TF.FilePolarity,Positive*
G04*
G01*
G75*
%ADD10C,0.02362*%
%ADD11C,0.00984*%
%ADD12C,0.00787*%
%ADD13C,0.00591*%
%ADD14C,0.00500*%
G36*
X204419Y171024D02*
X204519D01*
X204569Y171019D01*
X204885D01*
X205002Y171013D01*
X206456D01*
X206500Y171008D01*
X206578D01*
Y171002D01*
X206583Y170996D01*
Y170980D01*
X206589Y170952D01*
X206600Y170924D01*
X206606Y170886D01*
X206617Y170841D01*
X206628Y170791D01*
X206639Y170736D01*
X206650Y170675D01*
X206661Y170608D01*
X206678Y170530D01*
X206689Y170453D01*
X206706Y170364D01*
X206717Y170275D01*
X206733Y170175D01*
X206722Y170170D01*
X206711Y170164D01*
X206700Y170158D01*
X206689D01*
X206678Y170164D01*
X206661Y170175D01*
Y170181D01*
X206656Y170186D01*
X206645Y170203D01*
X206628Y170225D01*
X206595Y170275D01*
X206550Y170342D01*
X206495Y170414D01*
X206439Y170486D01*
X206373Y170558D01*
X206311Y170619D01*
X206306Y170625D01*
X206284Y170647D01*
X206251Y170675D01*
X206206Y170708D01*
X206156Y170741D01*
X206101Y170780D01*
X206040Y170813D01*
X205973Y170841D01*
X205967Y170847D01*
X205940Y170852D01*
X205901Y170863D01*
X205840Y170874D01*
X205757Y170886D01*
X205662Y170897D01*
X205540Y170908D01*
X205263D01*
X205174Y170902D01*
X205079Y170897D01*
X204980Y170886D01*
X204880Y170874D01*
X204785Y170858D01*
X204780Y170852D01*
X204774Y170835D01*
X204769Y170808D01*
X204763Y170763D01*
Y170758D01*
Y170747D01*
Y170724D01*
X204757Y170697D01*
Y170686D01*
Y170669D01*
X204752Y170647D01*
Y170619D01*
Y170580D01*
X204747Y170530D01*
Y170475D01*
Y170403D01*
X204741Y170325D01*
Y170231D01*
Y170125D01*
X204735Y170003D01*
Y169864D01*
Y169714D01*
Y169548D01*
Y169542D01*
Y169520D01*
Y169487D01*
X204741Y169442D01*
X204774D01*
X204807Y169437D01*
X204852D01*
X204941Y169431D01*
X205068D01*
X205129Y169437D01*
X205202Y169442D01*
X205279Y169454D01*
X205363Y169476D01*
X205435Y169498D01*
X205501Y169531D01*
X205507Y169537D01*
X205529Y169553D01*
X205557Y169581D01*
X205590Y169620D01*
X205629Y169681D01*
X205673Y169753D01*
X205718Y169848D01*
X205762Y169959D01*
Y169964D01*
X205768Y169970D01*
X205773Y169992D01*
X205790Y170009D01*
X205801Y170020D01*
X205818D01*
X205840Y170009D01*
X205856Y169986D01*
X205862Y169970D01*
Y169942D01*
X205851Y169837D01*
Y169825D01*
Y169798D01*
X205845Y169759D01*
Y169703D01*
X205840Y169637D01*
Y169565D01*
X205834Y169487D01*
Y169404D01*
Y169398D01*
Y169387D01*
Y169370D01*
Y169343D01*
Y169309D01*
Y169276D01*
Y169187D01*
X205840Y169087D01*
Y168976D01*
Y168865D01*
X205845Y168754D01*
Y168749D01*
Y168743D01*
X205840Y168710D01*
X205823Y168682D01*
X205812Y168671D01*
X205795Y168666D01*
X205790D01*
X205773Y168671D01*
X205757Y168693D01*
X205751Y168704D01*
X205745Y168727D01*
Y168732D01*
Y168738D01*
X205740Y168754D01*
X205734Y168777D01*
X205718Y168832D01*
X205696Y168899D01*
X205662Y168971D01*
X205623Y169049D01*
X205573Y169115D01*
X205512Y169176D01*
X205501Y169182D01*
X205490Y169187D01*
X205473Y169198D01*
X205451Y169209D01*
X205423Y169220D01*
X205390Y169232D01*
X205351Y169248D01*
X205301Y169259D01*
X205246Y169271D01*
X205185Y169281D01*
X205113Y169293D01*
X205035Y169304D01*
X204946Y169309D01*
X204846Y169315D01*
X204741D01*
Y169304D01*
Y169276D01*
Y169232D01*
Y169165D01*
X204735Y169076D01*
Y168971D01*
Y168838D01*
Y168765D01*
Y168688D01*
Y168682D01*
Y168666D01*
Y168638D01*
Y168599D01*
Y168554D01*
Y168505D01*
X204741Y168388D01*
X204747Y168266D01*
X204752Y168149D01*
X204757Y168099D01*
X204763Y168050D01*
X204769Y168011D01*
X204774Y167977D01*
Y167972D01*
X204785Y167955D01*
X204796Y167927D01*
X204813Y167894D01*
X204835Y167855D01*
X204869Y167816D01*
X204913Y167772D01*
X204963Y167739D01*
X204968Y167733D01*
X204991Y167727D01*
X205030Y167711D01*
X205085Y167694D01*
X205152Y167678D01*
X205240Y167666D01*
X205346Y167655D01*
X205473Y167650D01*
X205518D01*
X205573Y167655D01*
X205640Y167661D01*
X205723Y167672D01*
X205818Y167689D01*
X205918Y167711D01*
X206029Y167739D01*
X206139Y167778D01*
X206251Y167822D01*
X206362Y167883D01*
X206472Y167949D01*
X206572Y168033D01*
X206661Y168127D01*
X206739Y168238D01*
X206805Y168360D01*
Y168366D01*
X206811Y168377D01*
X206828Y168405D01*
X206850Y168438D01*
X206861Y168444D01*
X206878Y168449D01*
X206883D01*
X206900Y168444D01*
X206916Y168421D01*
X206922Y168410D01*
Y168388D01*
Y168382D01*
Y168366D01*
X206916Y168344D01*
X206905Y168316D01*
X206900Y168305D01*
Y168282D01*
X206889Y168249D01*
X206878Y168199D01*
X206867Y168138D01*
X206856Y168094D01*
X206850Y168050D01*
X206839Y167999D01*
X206828Y167938D01*
Y167933D01*
X206822Y167922D01*
Y167900D01*
X206811Y167861D01*
X206800Y167811D01*
X206783Y167739D01*
X206772Y167694D01*
X206755Y167644D01*
X206745Y167589D01*
X206728Y167528D01*
X205618Y167533D01*
X205518D01*
X205440Y167539D01*
X205340D01*
X205224Y167544D01*
X205079Y167550D01*
X204919Y167555D01*
X204874D01*
X204841Y167561D01*
X204702D01*
X204641Y167567D01*
X204513D01*
X204380Y167572D01*
X203920D01*
X203853Y167578D01*
X203748D01*
X203731Y167583D01*
X203725D01*
Y167589D01*
X203720Y167594D01*
X203714Y167617D01*
Y167628D01*
X203725Y167644D01*
X203736Y167655D01*
X203748Y167661D01*
X203770Y167672D01*
X203847D01*
X203897Y167683D01*
X203958Y167694D01*
X204019Y167711D01*
X204086Y167739D01*
X204141Y167778D01*
X204186Y167827D01*
X204191Y167833D01*
X204203Y167861D01*
X204208Y167883D01*
X204214Y167911D01*
X204225Y167944D01*
X204236Y167983D01*
X204241Y168027D01*
X204253Y168083D01*
X204258Y168144D01*
X204264Y168216D01*
X204269Y168294D01*
X204275Y168382D01*
X204280Y168482D01*
Y168588D01*
X204275Y169132D01*
X204280Y169637D01*
Y169642D01*
Y169670D01*
Y169709D01*
Y169770D01*
X204275Y169848D01*
Y169898D01*
Y169948D01*
X204269Y170009D01*
Y170070D01*
Y170142D01*
X204264Y170220D01*
Y170225D01*
Y170236D01*
Y170258D01*
Y170286D01*
X204258Y170358D01*
X204253Y170441D01*
X204247Y170525D01*
X204241Y170608D01*
Y170641D01*
X204236Y170669D01*
Y170691D01*
X204230Y170708D01*
Y170713D01*
Y170719D01*
X204219Y170747D01*
X204191Y170786D01*
X204153Y170830D01*
X204147Y170835D01*
X204141Y170841D01*
X204119Y170852D01*
X204092Y170869D01*
X204053Y170886D01*
X203997Y170908D01*
X203931Y170930D01*
X203853Y170952D01*
X203842Y170958D01*
X203820Y170963D01*
X203797Y170985D01*
X203792Y170996D01*
X203786Y171008D01*
Y171013D01*
X203797Y171035D01*
X203808Y171041D01*
X203825Y171052D01*
X203847Y171057D01*
X203875D01*
X204419Y171024D01*
D02*
G37*
G36*
X212833Y171113D02*
X212872D01*
X212922Y171107D01*
X212977Y171096D01*
X213038Y171085D01*
X213110Y171074D01*
X213182Y171057D01*
X213343Y171013D01*
X213521Y170947D01*
X213610Y170908D01*
X213704Y170863D01*
X213710D01*
X213726Y170852D01*
X213754Y170841D01*
X213782Y170830D01*
X213854Y170808D01*
X213882Y170802D01*
X213910Y170797D01*
X213926D01*
X213960Y170808D01*
X213998Y170825D01*
X214020Y170841D01*
X214037Y170863D01*
Y170869D01*
X214043Y170874D01*
X214059Y170897D01*
X214082Y170919D01*
X214098Y170930D01*
X214120D01*
X214131Y170924D01*
X214143Y170913D01*
X214154Y170891D01*
X214165Y170863D01*
X214176Y170825D01*
X214181Y170774D01*
Y170763D01*
Y170747D01*
X214187Y170730D01*
Y170702D01*
Y170669D01*
X214193Y170636D01*
X214198Y170591D01*
Y170541D01*
X214204Y170486D01*
X214209Y170425D01*
X214220Y170358D01*
X214226Y170286D01*
X214237Y170208D01*
X214248Y170125D01*
X214259Y170036D01*
Y170031D01*
X214265Y170020D01*
Y169986D01*
Y169975D01*
X214259Y169959D01*
X214237Y169936D01*
X214226Y169931D01*
X214204Y169925D01*
X214198D01*
X214181Y169936D01*
X214170Y169948D01*
X214159Y169959D01*
X214148Y169981D01*
X214137Y170009D01*
Y170014D01*
X214126Y170031D01*
X214115Y170053D01*
X214098Y170086D01*
X214076Y170125D01*
X214048Y170175D01*
X213982Y170281D01*
X213904Y170397D01*
X213804Y170519D01*
X213687Y170641D01*
X213560Y170747D01*
X213554Y170752D01*
X213543Y170758D01*
X213527Y170769D01*
X213499Y170786D01*
X213465Y170808D01*
X213427Y170830D01*
X213382Y170852D01*
X213332Y170880D01*
X213216Y170924D01*
X213088Y170969D01*
X212949Y170996D01*
X212877Y171008D01*
X212766D01*
X212744Y171002D01*
X212711D01*
X212677Y170996D01*
X212594Y170980D01*
X212494Y170958D01*
X212389Y170919D01*
X212272Y170869D01*
X212156Y170802D01*
X212150D01*
X212145Y170791D01*
X212128Y170780D01*
X212106Y170763D01*
X212045Y170719D01*
X211978Y170652D01*
X211895Y170564D01*
X211812Y170458D01*
X211728Y170331D01*
X211651Y170186D01*
Y170181D01*
X211645Y170170D01*
X211634Y170147D01*
X211623Y170114D01*
X211606Y170075D01*
X211590Y170031D01*
X211573Y169975D01*
X211556Y169920D01*
X211518Y169787D01*
X211490Y169637D01*
X211468Y169470D01*
X211456Y169298D01*
Y169293D01*
Y169271D01*
X211462Y169232D01*
Y169187D01*
X211468Y169126D01*
X211479Y169060D01*
X211490Y168982D01*
X211506Y168899D01*
X211528Y168810D01*
X211556Y168716D01*
X211584Y168621D01*
X211623Y168521D01*
X211673Y168421D01*
X211723Y168321D01*
X211784Y168227D01*
X211856Y168133D01*
X211861Y168127D01*
X211873Y168111D01*
X211895Y168088D01*
X211928Y168055D01*
X211967Y168022D01*
X212017Y167977D01*
X212072Y167933D01*
X212134Y167888D01*
X212206Y167844D01*
X212283Y167800D01*
X212367Y167755D01*
X212455Y167722D01*
X212550Y167689D01*
X212650Y167666D01*
X212755Y167650D01*
X212866Y167644D01*
X212905D01*
X212944Y167650D01*
X212994D01*
X213049Y167661D01*
X213110Y167672D01*
X213171Y167683D01*
X213232Y167705D01*
X213238Y167711D01*
X213260Y167717D01*
X213288Y167733D01*
X213327Y167755D01*
X213366Y167783D01*
X213416Y167816D01*
X213465Y167855D01*
X213515Y167900D01*
X213521Y167905D01*
X213538Y167922D01*
X213560Y167944D01*
X213588Y167972D01*
X213638Y168033D01*
X213660Y168061D01*
X213676Y168088D01*
Y168094D01*
X213682Y168099D01*
X213687Y168122D01*
X213693Y168149D01*
X213699Y168194D01*
X213704Y168249D01*
X213710Y168321D01*
Y168410D01*
Y168416D01*
Y168427D01*
Y168449D01*
Y168482D01*
X213704Y168516D01*
Y168554D01*
X213693Y168643D01*
X213682Y168738D01*
X213660Y168832D01*
X213632Y168915D01*
X213615Y168954D01*
X213593Y168982D01*
X213588Y168987D01*
X213571Y169004D01*
X213543Y169026D01*
X213504Y169054D01*
X213449Y169076D01*
X213388Y169098D01*
X213310Y169115D01*
X213221Y169121D01*
X213127D01*
X213105Y169126D01*
X213077Y169143D01*
X213071Y169154D01*
X213066Y169171D01*
Y169176D01*
Y169182D01*
X213077Y169204D01*
X213088Y169215D01*
X213099Y169220D01*
X213121Y169232D01*
X213149D01*
X213288Y169226D01*
X213887Y169232D01*
X214626Y169248D01*
X214636D01*
X214659Y169243D01*
X214675Y169220D01*
X214686Y169209D01*
Y169187D01*
Y169176D01*
X214675Y169159D01*
X214659Y169143D01*
X214636Y169132D01*
X214609D01*
X214587Y169126D01*
X214559D01*
X214520Y169115D01*
X214431Y169093D01*
X214387Y169076D01*
X214342Y169060D01*
X214337D01*
X214326Y169049D01*
X214293Y169021D01*
X214248Y168982D01*
X214231Y168960D01*
X214220Y168932D01*
Y168926D01*
X214215Y168921D01*
Y168899D01*
X214209Y168876D01*
X214204Y168843D01*
Y168799D01*
X214198Y168749D01*
Y168688D01*
Y168682D01*
Y168660D01*
Y168632D01*
Y168593D01*
Y168543D01*
Y168488D01*
X214193Y168371D01*
Y168249D01*
X214187Y168194D01*
Y168144D01*
X214181Y168094D01*
X214176Y168055D01*
X214170Y168027D01*
X214165Y168011D01*
Y168005D01*
X214154Y167999D01*
X214131Y167977D01*
X214093Y167955D01*
X214065Y167938D01*
X214032Y167916D01*
X213993Y167894D01*
X213943Y167866D01*
X213887Y167839D01*
X213826Y167805D01*
X213754Y167772D01*
X213671Y167733D01*
X213665D01*
X213649Y167722D01*
X213627Y167711D01*
X213593Y167700D01*
X213549Y167683D01*
X213499Y167666D01*
X213443Y167644D01*
X213382Y167628D01*
X213244Y167583D01*
X213083Y167550D01*
X212916Y167528D01*
X212738Y167517D01*
X212705D01*
X212661Y167522D01*
X212611D01*
X212544Y167533D01*
X212467Y167544D01*
X212378Y167555D01*
X212283Y167578D01*
X212178Y167605D01*
X212072Y167639D01*
X211962Y167678D01*
X211851Y167727D01*
X211739Y167783D01*
X211629Y167850D01*
X211518Y167922D01*
X211412Y168011D01*
X211406Y168016D01*
X211390Y168033D01*
X211362Y168061D01*
X211329Y168099D01*
X211284Y168149D01*
X211240Y168210D01*
X211190Y168277D01*
X211140Y168355D01*
X211085Y168444D01*
X211035Y168538D01*
X210990Y168643D01*
X210951Y168754D01*
X210912Y168871D01*
X210885Y168999D01*
X210868Y169132D01*
X210863Y169271D01*
Y169276D01*
Y169293D01*
Y169320D01*
X210868Y169359D01*
Y169404D01*
X210879Y169459D01*
X210885Y169520D01*
X210896Y169587D01*
X210929Y169737D01*
X210974Y169892D01*
X211040Y170059D01*
X211079Y170142D01*
X211123Y170220D01*
X211129Y170225D01*
X211135Y170236D01*
X211151Y170258D01*
X211173Y170292D01*
X211196Y170325D01*
X211229Y170369D01*
X211312Y170464D01*
X211412Y170569D01*
X211534Y170680D01*
X211673Y170786D01*
X211834Y170880D01*
X211839Y170886D01*
X211856Y170891D01*
X211878Y170902D01*
X211912Y170919D01*
X211956Y170935D01*
X212000Y170958D01*
X212056Y170980D01*
X212122Y171002D01*
X212261Y171041D01*
X212417Y171080D01*
X212583Y171107D01*
X212666Y171119D01*
X212800D01*
X212833Y171113D01*
D02*
G37*
G36*
X209175Y171107D02*
X209236Y171102D01*
X209309Y171096D01*
X209386Y171080D01*
X209475Y171063D01*
X209564Y171035D01*
X209569D01*
X209575Y171030D01*
X209608Y171024D01*
X209653Y171008D01*
X209719Y170980D01*
X209791Y170952D01*
X209880Y170913D01*
X209969Y170869D01*
X210063Y170819D01*
X210069Y170825D01*
X210086Y170841D01*
X210113Y170863D01*
X210141Y170891D01*
X210202Y170947D01*
X210224Y170969D01*
X210235Y170991D01*
Y170996D01*
X210241Y171002D01*
X210252Y171024D01*
X210274Y171046D01*
X210291Y171057D01*
X210319D01*
X210335Y171046D01*
X210346Y171035D01*
X210357Y171013D01*
X210363Y170991D01*
X210369Y170958D01*
X210430Y170036D01*
Y170031D01*
Y170025D01*
Y169998D01*
X210424Y169964D01*
Y169953D01*
X210419Y169942D01*
X210413Y169936D01*
X210402Y169931D01*
X210385Y169925D01*
X210380D01*
X210357Y169942D01*
X210346Y169953D01*
X210330Y169970D01*
X210313Y169998D01*
X210297Y170036D01*
Y170042D01*
X210291Y170053D01*
X210280Y170075D01*
X210263Y170108D01*
X210246Y170142D01*
X210224Y170186D01*
X210169Y170281D01*
X210097Y170392D01*
X210013Y170502D01*
X209919Y170619D01*
X209808Y170724D01*
X209803Y170730D01*
X209791Y170736D01*
X209775Y170752D01*
X209753Y170769D01*
X209725Y170786D01*
X209686Y170813D01*
X209603Y170863D01*
X209503Y170913D01*
X209386Y170952D01*
X209259Y170985D01*
X209187Y170991D01*
X209120Y170996D01*
X209086D01*
X209064Y170991D01*
X209003Y170985D01*
X208926Y170969D01*
X208831Y170947D01*
X208731Y170908D01*
X208631Y170858D01*
X208526Y170786D01*
X208520D01*
X208515Y170774D01*
X208482Y170747D01*
X208432Y170702D01*
X208376Y170636D01*
X208310Y170553D01*
X208237Y170447D01*
X208171Y170331D01*
X208110Y170192D01*
Y170186D01*
X208104Y170175D01*
X208099Y170153D01*
X208088Y170125D01*
X208077Y170092D01*
X208060Y170047D01*
X208049Y169998D01*
X208038Y169948D01*
X208010Y169820D01*
X207982Y169681D01*
X207965Y169526D01*
X207960Y169365D01*
Y169354D01*
Y169332D01*
X207965Y169293D01*
Y169243D01*
X207971Y169176D01*
X207982Y169104D01*
X207993Y169021D01*
X208010Y168932D01*
X208032Y168838D01*
X208060Y168738D01*
X208093Y168638D01*
X208132Y168532D01*
X208182Y168432D01*
X208237Y168333D01*
X208298Y168238D01*
X208371Y168144D01*
X208376Y168138D01*
X208387Y168122D01*
X208415Y168099D01*
X208443Y168072D01*
X208482Y168038D01*
X208532Y167994D01*
X208581Y167955D01*
X208643Y167911D01*
X208709Y167866D01*
X208781Y167827D01*
X208937Y167750D01*
X209020Y167722D01*
X209109Y167700D01*
X209203Y167683D01*
X209297Y167678D01*
X209331D01*
X209359Y167683D01*
X209386D01*
X209425Y167689D01*
X209508Y167705D01*
X209608Y167733D01*
X209714Y167766D01*
X209825Y167822D01*
X209936Y167894D01*
X209941D01*
X209947Y167905D01*
X209963Y167916D01*
X209986Y167933D01*
X210036Y167977D01*
X210102Y168038D01*
X210174Y168111D01*
X210246Y168199D01*
X210313Y168294D01*
X210374Y168399D01*
Y168405D01*
X210380Y168410D01*
X210402Y168444D01*
X210430Y168471D01*
X210441Y168477D01*
X210457Y168482D01*
X210469D01*
X210491Y168477D01*
X210507Y168455D01*
X210518Y168438D01*
Y168416D01*
Y168410D01*
X210513Y168399D01*
X210507Y168377D01*
X210491Y168344D01*
X210469Y168299D01*
X210430Y168238D01*
X210380Y168166D01*
X210313Y168077D01*
X210302Y168066D01*
X210274Y168033D01*
X210235Y167988D01*
X210174Y167927D01*
X210097Y167866D01*
X210008Y167794D01*
X209902Y167727D01*
X209786Y167661D01*
X209780D01*
X209769Y167655D01*
X209753Y167644D01*
X209730Y167639D01*
X209697Y167622D01*
X209664Y167611D01*
X209575Y167583D01*
X209470Y167550D01*
X209353Y167528D01*
X209220Y167506D01*
X209081Y167500D01*
X209037D01*
X209003Y167506D01*
X208964D01*
X208920Y167511D01*
X208865Y167517D01*
X208809Y167528D01*
X208681Y167555D01*
X208537Y167594D01*
X208387Y167650D01*
X208237Y167722D01*
X208232Y167727D01*
X208221Y167733D01*
X208198Y167744D01*
X208171Y167766D01*
X208137Y167789D01*
X208099Y167816D01*
X208010Y167883D01*
X207910Y167972D01*
X207804Y168083D01*
X207705Y168205D01*
X207610Y168344D01*
Y168349D01*
X207599Y168360D01*
X207588Y168382D01*
X207571Y168416D01*
X207555Y168455D01*
X207538Y168499D01*
X207516Y168549D01*
X207494Y168610D01*
X207471Y168677D01*
X207449Y168749D01*
X207416Y168904D01*
X207388Y169082D01*
X207377Y169276D01*
Y169281D01*
Y169298D01*
Y169326D01*
X207383Y169365D01*
Y169409D01*
X207388Y169465D01*
X207394Y169526D01*
X207405Y169592D01*
X207433Y169742D01*
X207471Y169898D01*
X207527Y170064D01*
X207599Y170225D01*
X207605Y170231D01*
X207610Y170242D01*
X207621Y170264D01*
X207644Y170297D01*
X207666Y170331D01*
X207694Y170369D01*
X207766Y170464D01*
X207854Y170569D01*
X207965Y170680D01*
X208093Y170786D01*
X208237Y170880D01*
X208243Y170886D01*
X208254Y170891D01*
X208276Y170902D01*
X208310Y170919D01*
X208348Y170935D01*
X208393Y170952D01*
X208443Y170974D01*
X208498Y170996D01*
X208626Y171041D01*
X208770Y171074D01*
X208926Y171102D01*
X209086Y171113D01*
X209125D01*
X209175Y171107D01*
D02*
G37*
G36*
X199602Y171241D02*
X199629Y171235D01*
X199657Y171224D01*
X199696Y171213D01*
X199724Y171191D01*
X199757Y171163D01*
X199763Y171157D01*
X199768Y171146D01*
X199779Y171130D01*
X199796Y171107D01*
X199812Y171080D01*
X199824Y171041D01*
X199829Y171002D01*
X199835Y170952D01*
Y170947D01*
Y170930D01*
X199829Y170902D01*
X199824Y170858D01*
X199818Y170797D01*
X199812Y170758D01*
X199807Y170713D01*
X199796Y170663D01*
X199785Y170608D01*
X199774Y170541D01*
X199763Y170475D01*
X199618Y169698D01*
X199502D01*
X199357Y170480D01*
Y170486D01*
Y170497D01*
X199352Y170514D01*
X199346Y170536D01*
X199341Y170591D01*
X199330Y170658D01*
X199319Y170730D01*
X199313Y170797D01*
X199302Y170858D01*
Y170902D01*
Y170908D01*
Y170919D01*
Y170935D01*
X199307Y170958D01*
X199313Y171013D01*
X199335Y171074D01*
X199363Y171135D01*
X199407Y171191D01*
X199441Y171213D01*
X199474Y171230D01*
X199513Y171241D01*
X199557Y171246D01*
X199579D01*
X199602Y171241D01*
D02*
G37*
G36*
X201183Y169864D02*
X201239Y169853D01*
X201311Y169837D01*
X201394Y169809D01*
X201483Y169775D01*
X201577Y169731D01*
X201583D01*
X201600Y169726D01*
X201622Y169720D01*
X201649Y169714D01*
X201655D01*
X201666Y169720D01*
X201688Y169731D01*
X201711Y169753D01*
X201716Y169759D01*
X201727Y169775D01*
X201744Y169792D01*
X201761Y169798D01*
X201772D01*
X201783Y169787D01*
X201794Y169775D01*
X201799Y169770D01*
Y169759D01*
X201805Y169737D01*
X201811Y169709D01*
X201816Y169665D01*
X201822Y169609D01*
X201827Y169537D01*
Y169526D01*
X201833Y169503D01*
Y169465D01*
X201838Y169415D01*
Y169359D01*
X201844Y169298D01*
Y169243D01*
Y169187D01*
Y169182D01*
Y169176D01*
X201838Y169148D01*
X201822Y169115D01*
X201811Y169109D01*
X201794Y169104D01*
X201788D01*
X201772Y169115D01*
X201749Y169137D01*
X201744Y169154D01*
X201733Y169176D01*
Y169182D01*
X201727Y169193D01*
X201722Y169209D01*
X201711Y169237D01*
X201694Y169276D01*
X201672Y169320D01*
X201638Y169381D01*
X201605Y169448D01*
X201600Y169459D01*
X201589Y169481D01*
X201566Y169515D01*
X201539Y169559D01*
X201500Y169603D01*
X201461Y169642D01*
X201416Y169681D01*
X201372Y169709D01*
X201366D01*
X201350Y169720D01*
X201328Y169726D01*
X201294Y169737D01*
X201261Y169748D01*
X201217Y169753D01*
X201128Y169764D01*
X201095D01*
X201061Y169759D01*
X201017Y169753D01*
X200967Y169742D01*
X200917Y169726D01*
X200867Y169703D01*
X200817Y169670D01*
X200812Y169665D01*
X200800Y169653D01*
X200778Y169631D01*
X200762Y169603D01*
X200739Y169570D01*
X200717Y169526D01*
X200706Y169481D01*
X200700Y169426D01*
Y169420D01*
Y169409D01*
X200706Y169393D01*
Y169370D01*
X200723Y169320D01*
X200750Y169259D01*
Y169254D01*
X200762Y169248D01*
X200778Y169220D01*
X200812Y169182D01*
X200839Y169148D01*
X200845D01*
X200856Y169137D01*
X200878Y169126D01*
X200917Y169104D01*
X200950Y169087D01*
X200984Y169071D01*
X201022Y169054D01*
X201072Y169032D01*
X201128Y169004D01*
X201189Y168976D01*
X201261Y168943D01*
X201344Y168904D01*
X201350D01*
X201355Y168899D01*
X201389Y168882D01*
X201439Y168860D01*
X201500Y168832D01*
X201561Y168799D01*
X201622Y168765D01*
X201677Y168732D01*
X201716Y168704D01*
X201722Y168699D01*
X201733Y168693D01*
X201749Y168677D01*
X201772Y168654D01*
X201822Y168593D01*
X201872Y168516D01*
X201877Y168510D01*
X201883Y168493D01*
X201894Y168471D01*
X201905Y168444D01*
X201916Y168405D01*
X201922Y168360D01*
X201933Y168316D01*
Y168266D01*
Y168260D01*
Y168255D01*
Y168238D01*
X201927Y168216D01*
X201922Y168160D01*
X201905Y168088D01*
X201877Y168005D01*
X201838Y167916D01*
X201783Y167827D01*
X201705Y167739D01*
X201694Y167727D01*
X201666Y167705D01*
X201616Y167672D01*
X201555Y167633D01*
X201472Y167589D01*
X201383Y167555D01*
X201278Y167533D01*
X201167Y167522D01*
X201133D01*
X201095Y167528D01*
X201039Y167539D01*
X200978Y167550D01*
X200900Y167572D01*
X200817Y167600D01*
X200723Y167639D01*
X200717Y167644D01*
X200700Y167650D01*
X200678Y167661D01*
X200651Y167672D01*
X200595Y167694D01*
X200573Y167705D01*
X200551D01*
X200528Y167700D01*
X200506Y167678D01*
X200490Y167666D01*
X200479Y167644D01*
Y167639D01*
X200473Y167633D01*
X200451Y167611D01*
X200429Y167583D01*
X200412Y167578D01*
X200401Y167572D01*
X200395D01*
X200384Y167583D01*
X200367Y167605D01*
X200362Y167622D01*
X200356Y167644D01*
Y167650D01*
Y167661D01*
Y167683D01*
Y167717D01*
X200351Y167761D01*
Y167822D01*
Y167900D01*
Y167988D01*
Y167999D01*
Y168027D01*
Y168066D01*
X200345Y168116D01*
Y168166D01*
Y168216D01*
X200340Y168255D01*
Y168288D01*
Y168294D01*
Y168305D01*
X200345Y168338D01*
X200362Y168371D01*
X200373Y168382D01*
X200390Y168388D01*
X200395D01*
X200406Y168382D01*
X200423Y168366D01*
X200440Y168333D01*
Y168327D01*
X200445Y168321D01*
X200451Y168305D01*
X200456Y168282D01*
X200479Y168227D01*
X200512Y168155D01*
X200551Y168077D01*
X200601Y167988D01*
X200656Y167905D01*
X200723Y167822D01*
X200734Y167811D01*
X200756Y167789D01*
X200795Y167755D01*
X200850Y167722D01*
X200911Y167683D01*
X200989Y167650D01*
X201072Y167628D01*
X201161Y167617D01*
X201189D01*
X201222Y167622D01*
X201267Y167628D01*
X201311Y167644D01*
X201366Y167661D01*
X201416Y167689D01*
X201472Y167722D01*
X201478Y167727D01*
X201494Y167744D01*
X201516Y167766D01*
X201544Y167800D01*
X201566Y167844D01*
X201589Y167894D01*
X201605Y167955D01*
X201611Y168022D01*
Y168027D01*
Y168033D01*
X201605Y168050D01*
Y168072D01*
X201583Y168127D01*
X201566Y168160D01*
X201550Y168194D01*
X201522Y168233D01*
X201489Y168277D01*
X201444Y168316D01*
X201400Y168360D01*
X201339Y168405D01*
X201272Y168449D01*
X201195Y168493D01*
X201106Y168538D01*
X201100D01*
X201089Y168543D01*
X201072Y168554D01*
X201050Y168566D01*
X200989Y168593D01*
X200917Y168627D01*
X200845Y168660D01*
X200767Y168699D01*
X200700Y168738D01*
X200645Y168765D01*
X200640Y168771D01*
X200628Y168777D01*
X200606Y168793D01*
X200578Y168815D01*
X200551Y168843D01*
X200517Y168876D01*
X200462Y168960D01*
Y168965D01*
X200451Y168982D01*
X200445Y169004D01*
X200434Y169037D01*
X200423Y169076D01*
X200412Y169126D01*
X200406Y169176D01*
X200401Y169226D01*
Y169232D01*
Y169237D01*
X200406Y169271D01*
X200412Y169320D01*
X200429Y169387D01*
X200451Y169459D01*
X200490Y169531D01*
X200540Y169609D01*
X200606Y169681D01*
X200617Y169687D01*
X200645Y169709D01*
X200684Y169742D01*
X200745Y169775D01*
X200817Y169809D01*
X200900Y169842D01*
X200995Y169864D01*
X201100Y169870D01*
X201139D01*
X201183Y169864D01*
D02*
G37*
G36*
X219754Y171002D02*
X219770D01*
X219787Y170996D01*
X219793D01*
X219804Y170991D01*
X219809Y170980D01*
X219815Y170958D01*
Y170952D01*
X219804Y170935D01*
X219787Y170924D01*
X219770Y170913D01*
X219742Y170902D01*
X219709Y170897D01*
X219698D01*
X219676Y170891D01*
X219643Y170880D01*
X219598Y170863D01*
X219548Y170847D01*
X219498Y170819D01*
X219454Y170786D01*
X219409Y170747D01*
X219404Y170741D01*
X219393Y170724D01*
X219371Y170702D01*
X219349Y170669D01*
X219321Y170630D01*
X219287Y170586D01*
X219249Y170530D01*
X219215Y170475D01*
X219210Y170464D01*
X219204Y170453D01*
X219193Y170430D01*
X219182Y170403D01*
X219165Y170364D01*
X219149Y170314D01*
X219121Y170253D01*
X219093Y170181D01*
X219060Y170092D01*
X219021Y169986D01*
X218977Y169870D01*
X218921Y169731D01*
X218866Y169576D01*
X218805Y169398D01*
X218771Y169298D01*
X218733Y169198D01*
Y169193D01*
X218727Y169182D01*
X218716Y169154D01*
X218705Y169115D01*
X218683Y169065D01*
X218660Y169004D01*
X218633Y168932D01*
X218599Y168838D01*
X218560Y168732D01*
X218516Y168616D01*
X218460Y168477D01*
X218405Y168321D01*
X218338Y168149D01*
X218266Y167955D01*
X218183Y167744D01*
X218094Y167511D01*
X217939D01*
Y167517D01*
X217933Y167528D01*
X217928Y167550D01*
X217917Y167583D01*
X217900Y167628D01*
X217883Y167672D01*
X217867Y167733D01*
X217845Y167800D01*
X217817Y167872D01*
X217789Y167955D01*
X217756Y168044D01*
X217717Y168138D01*
X217678Y168244D01*
X217639Y168355D01*
X217595Y168471D01*
X217545Y168599D01*
X217045Y169892D01*
Y169898D01*
X217034Y169920D01*
X217023Y169948D01*
X217006Y169986D01*
X216990Y170036D01*
X216968Y170092D01*
X216918Y170208D01*
X216862Y170336D01*
X216807Y170458D01*
X216784Y170514D01*
X216757Y170564D01*
X216735Y170602D01*
X216718Y170636D01*
X216712Y170641D01*
X216701Y170658D01*
X216685Y170686D01*
X216662Y170719D01*
X216607Y170786D01*
X216574Y170813D01*
X216540Y170835D01*
X216535D01*
X216524Y170847D01*
X216501Y170852D01*
X216474Y170863D01*
X216440Y170880D01*
X216396Y170891D01*
X216346Y170902D01*
X216290Y170908D01*
X216279D01*
X216263Y170913D01*
X216241Y170924D01*
X216235Y170935D01*
X216229Y170952D01*
Y170963D01*
X216235Y170980D01*
X216257Y170996D01*
X216268Y171008D01*
X217728D01*
X217750Y171002D01*
X217772Y170996D01*
X217794Y170985D01*
X217811Y170974D01*
X217817Y170958D01*
Y170947D01*
X217806Y170930D01*
X217794Y170919D01*
X217778Y170913D01*
X217756Y170902D01*
X217695D01*
X217672Y170897D01*
X217617Y170886D01*
X217556Y170863D01*
X217489Y170830D01*
X217434Y170774D01*
X217411Y170741D01*
X217395Y170702D01*
X217384Y170658D01*
X217378Y170602D01*
Y170597D01*
Y170591D01*
Y170569D01*
X217384Y170547D01*
Y170514D01*
X217395Y170475D01*
X217401Y170425D01*
X217411Y170369D01*
Y170364D01*
X217417Y170342D01*
X217428Y170308D01*
X217439Y170264D01*
X217456Y170208D01*
X217473Y170142D01*
X217495Y170070D01*
X217523Y169986D01*
X217528Y169975D01*
X217534Y169959D01*
X217539Y169942D01*
X217550Y169914D01*
X217561Y169875D01*
X217578Y169837D01*
X217595Y169787D01*
X217617Y169726D01*
X217639Y169659D01*
X217667Y169581D01*
X217695Y169498D01*
X217728Y169404D01*
X217767Y169298D01*
X217811Y169182D01*
X217856Y169054D01*
X217861Y169049D01*
X217867Y169026D01*
X217878Y168987D01*
X217900Y168943D01*
X217917Y168887D01*
X217944Y168821D01*
X217994Y168682D01*
X218050Y168532D01*
X218105Y168394D01*
X218133Y168327D01*
X218155Y168272D01*
X218172Y168227D01*
X218189Y168188D01*
X218755Y169759D01*
X218760Y169764D01*
X218766Y169787D01*
X218777Y169820D01*
X218794Y169864D01*
X218810Y169920D01*
X218832Y169981D01*
X218877Y170114D01*
X218921Y170258D01*
X218960Y170392D01*
X218977Y170458D01*
X218988Y170514D01*
X218999Y170558D01*
Y170597D01*
Y170602D01*
Y170608D01*
X218993Y170641D01*
X218982Y170686D01*
X218954Y170741D01*
X218916Y170797D01*
X218888Y170819D01*
X218855Y170847D01*
X218816Y170869D01*
X218766Y170886D01*
X218716Y170897D01*
X218655Y170908D01*
X218644D01*
X218621Y170913D01*
X218599Y170930D01*
X218594Y170941D01*
X218588Y170958D01*
Y170963D01*
X218594Y170974D01*
X218599Y170985D01*
X218610Y170996D01*
X218616D01*
X218627Y171002D01*
X218660D01*
X218688Y171008D01*
X219704D01*
X219754Y171002D01*
D02*
G37*
G36*
X198841Y169792D02*
X198874D01*
X198897Y169787D01*
X198908D01*
X198925Y169781D01*
X198941Y169764D01*
X198952Y169742D01*
Y169737D01*
X198941Y169720D01*
X198925Y169709D01*
X198908Y169698D01*
X198880Y169681D01*
X198841Y169665D01*
X198836D01*
X198819Y169653D01*
X198797Y169642D01*
X198769Y169620D01*
X198708Y169576D01*
X198675Y169542D01*
X198647Y169509D01*
X198642Y169503D01*
X198636Y169492D01*
X198619Y169465D01*
X198603Y169426D01*
X198580Y169376D01*
X198558Y169309D01*
X198525Y169226D01*
X198497Y169121D01*
X198492Y169109D01*
Y169093D01*
X198480Y169071D01*
X198475Y169043D01*
X198464Y169010D01*
X198447Y168971D01*
X198431Y168921D01*
X198414Y168865D01*
X198392Y168804D01*
X198364Y168732D01*
X198336Y168654D01*
X198303Y168571D01*
X198270Y168477D01*
X198231Y168371D01*
X198186Y168260D01*
X197931Y167578D01*
X197925Y167567D01*
X197914Y167550D01*
X197898Y167533D01*
X197875Y167522D01*
X197870D01*
X197864Y167528D01*
X197853Y167539D01*
X197842Y167555D01*
X197826Y167578D01*
X197809Y167611D01*
X197792Y167655D01*
Y167661D01*
X197787Y167678D01*
X197770Y167705D01*
X197753Y167755D01*
X197737Y167789D01*
X197726Y167827D01*
X197704Y167872D01*
X197687Y167922D01*
X197659Y167977D01*
X197637Y168044D01*
X197604Y168116D01*
X197570Y168194D01*
X197565Y168199D01*
X197559Y168221D01*
X197543Y168255D01*
X197526Y168294D01*
X197504Y168344D01*
X197482Y168405D01*
X197454Y168471D01*
X197421Y168543D01*
X197359Y168693D01*
X197293Y168854D01*
X197232Y169004D01*
X197204Y169076D01*
X197182Y169143D01*
X197165Y169126D01*
X197160Y169115D01*
X197149Y169087D01*
X197132Y169032D01*
X197110Y168965D01*
X197076Y168876D01*
X197037Y168777D01*
X196993Y168654D01*
X196938Y168521D01*
X196660Y167850D01*
Y167844D01*
X196654Y167839D01*
X196643Y167805D01*
X196621Y167755D01*
X196599Y167700D01*
X196571Y167639D01*
X196549Y167589D01*
X196527Y167550D01*
X196521Y167539D01*
X196516Y167533D01*
X196505Y167528D01*
X196499Y167522D01*
X196488Y167517D01*
X196483D01*
X196466Y167533D01*
X196449Y167544D01*
X196438Y167561D01*
X196422Y167589D01*
X196405Y167628D01*
Y167633D01*
X196394Y167650D01*
X196383Y167683D01*
X196366Y167722D01*
X196349Y167772D01*
X196327Y167827D01*
X196299Y167888D01*
X196272Y167961D01*
X196211Y168111D01*
X196144Y168277D01*
X196077Y168449D01*
X196005Y168616D01*
X195700Y169315D01*
Y169320D01*
X195694Y169326D01*
X195683Y169359D01*
X195661Y169404D01*
X195633Y169454D01*
X195606Y169509D01*
X195578Y169559D01*
X195550Y169598D01*
X195528Y169626D01*
X195517Y169631D01*
X195495Y169648D01*
X195456Y169665D01*
X195406Y169676D01*
X195395D01*
X195361Y169687D01*
X195334Y169698D01*
X195323Y169709D01*
X195317Y169726D01*
Y169731D01*
Y169737D01*
X195334Y169759D01*
X195345Y169770D01*
X195367Y169775D01*
X195395Y169787D01*
X195433D01*
X196038Y169798D01*
X196288Y169792D01*
X196299D01*
X196327Y169787D01*
X196355Y169775D01*
X196360Y169764D01*
X196366Y169748D01*
Y169737D01*
X196355Y169720D01*
X196338Y169709D01*
X196322Y169698D01*
X196294Y169687D01*
X196260Y169681D01*
X196255D01*
X196233Y169676D01*
X196200Y169665D01*
X196166Y169653D01*
X196127Y169637D01*
X196099Y169609D01*
X196077Y169581D01*
X196066Y169548D01*
Y169537D01*
X196072Y169526D01*
X196077Y169503D01*
X196083Y169476D01*
X196094Y169437D01*
X196116Y169381D01*
X196138Y169315D01*
X196166Y169232D01*
X196205Y169132D01*
X196255Y169015D01*
X196305Y168876D01*
X196338Y168799D01*
X196371Y168716D01*
X196410Y168627D01*
X196449Y168532D01*
X196494Y168432D01*
X196538Y168327D01*
X196588Y168216D01*
X196638Y168094D01*
Y168099D01*
X196643Y168105D01*
X196660Y168138D01*
X196682Y168194D01*
X196710Y168260D01*
X196743Y168344D01*
X196782Y168438D01*
X196821Y168538D01*
X196865Y168649D01*
X196949Y168865D01*
X196988Y168965D01*
X197021Y169065D01*
X197049Y169154D01*
X197076Y169232D01*
X197087Y169293D01*
X197093Y169337D01*
Y169343D01*
Y169354D01*
Y169370D01*
X197087Y169398D01*
X197071Y169454D01*
X197043Y169520D01*
Y169526D01*
X197037Y169537D01*
X197015Y169570D01*
X196982Y169609D01*
X196965Y169631D01*
X196949Y169642D01*
X196943Y169648D01*
X196915Y169659D01*
X196871Y169676D01*
X196810Y169681D01*
X196799D01*
X196782Y169687D01*
X196760Y169698D01*
X196754Y169709D01*
X196749Y169726D01*
Y169731D01*
Y169737D01*
X196760Y169759D01*
X196777Y169775D01*
X196793Y169787D01*
X196816D01*
X197282Y169798D01*
X197526D01*
X197587Y169792D01*
X197637D01*
X197653Y169787D01*
X197670D01*
X197687Y169781D01*
X197704Y169764D01*
X197709Y169742D01*
Y169737D01*
X197698Y169720D01*
X197687Y169714D01*
X197670Y169703D01*
X197648Y169692D01*
X197620Y169681D01*
X197615D01*
X197598Y169670D01*
X197570Y169659D01*
X197543Y169642D01*
X197509Y169620D01*
X197487Y169592D01*
X197465Y169559D01*
X197459Y169526D01*
Y169520D01*
X197465Y169509D01*
Y169492D01*
X197470Y169470D01*
X197482Y169442D01*
X197493Y169404D01*
X197509Y169354D01*
Y169348D01*
X197520Y169326D01*
X197531Y169293D01*
X197554Y169237D01*
X197581Y169171D01*
X197615Y169087D01*
X197653Y168987D01*
X197704Y168865D01*
X198025Y168127D01*
Y168133D01*
X198037Y168149D01*
X198042Y168172D01*
X198059Y168205D01*
X198070Y168244D01*
X198092Y168294D01*
X198114Y168349D01*
X198136Y168410D01*
X198186Y168549D01*
X198242Y168699D01*
X198297Y168860D01*
X198353Y169026D01*
Y169032D01*
X198358Y169043D01*
X198370Y169065D01*
X198375Y169098D01*
X198386Y169132D01*
X198403Y169171D01*
X198431Y169259D01*
X198453Y169348D01*
X198480Y169431D01*
X198492Y169465D01*
X198497Y169498D01*
X198503Y169520D01*
Y169537D01*
Y169542D01*
Y169559D01*
X198492Y169581D01*
X198480Y169603D01*
X198458Y169631D01*
X198431Y169659D01*
X198386Y169676D01*
X198331Y169687D01*
X198314D01*
X198286Y169698D01*
X198253Y169714D01*
X198242Y169726D01*
X198236Y169742D01*
Y169748D01*
X198247Y169764D01*
X198258Y169770D01*
X198270Y169775D01*
X198292Y169781D01*
X198320Y169787D01*
X198336D01*
X198358Y169792D01*
X198442D01*
X198503Y169798D01*
X198769D01*
X198841Y169792D01*
D02*
G37*
G36*
X190905Y169875D02*
Y169864D01*
Y169831D01*
Y169787D01*
Y169726D01*
X190910Y169659D01*
Y169592D01*
Y169520D01*
X190916Y169454D01*
X190921Y169459D01*
X190933Y169470D01*
X190949Y169492D01*
X190971Y169515D01*
X191005Y169548D01*
X191038Y169581D01*
X191082Y169615D01*
X191127Y169653D01*
X191238Y169726D01*
X191365Y169792D01*
X191438Y169814D01*
X191515Y169837D01*
X191587Y169848D01*
X191671Y169853D01*
X191704D01*
X191726Y169848D01*
X191793Y169842D01*
X191870Y169831D01*
X191954Y169803D01*
X192043Y169770D01*
X192126Y169720D01*
X192203Y169653D01*
X192209Y169642D01*
X192231Y169615D01*
X192248Y169592D01*
X192264Y169565D01*
X192281Y169531D01*
X192298Y169492D01*
X192315Y169442D01*
X192331Y169393D01*
X192348Y169332D01*
X192364Y169271D01*
X192376Y169198D01*
X192387Y169121D01*
X192392Y169037D01*
Y168943D01*
X192381Y168238D01*
Y168233D01*
Y168221D01*
Y168205D01*
Y168183D01*
Y168127D01*
Y168061D01*
Y167988D01*
Y167922D01*
X192387Y167866D01*
Y167844D01*
Y167827D01*
Y167822D01*
Y167816D01*
X192398Y167783D01*
X192420Y167744D01*
X192437Y167722D01*
X192459Y167700D01*
X192464D01*
X192470Y167694D01*
X192503Y167678D01*
X192548Y167655D01*
X192597Y167650D01*
X192609D01*
X192636Y167644D01*
X192658Y167639D01*
X192664Y167628D01*
X192670Y167617D01*
Y167611D01*
X192653Y167594D01*
X192642Y167589D01*
X192620Y167578D01*
X192592Y167572D01*
X191765D01*
X191748Y167578D01*
X191732Y167594D01*
X191726Y167617D01*
Y167622D01*
X191732Y167633D01*
X191748Y167650D01*
X191782Y167661D01*
X191793D01*
X191809Y167666D01*
X191843Y167672D01*
X191882Y167689D01*
X191920Y167705D01*
X191954Y167733D01*
X191987Y167766D01*
X192004Y167805D01*
Y167811D01*
X192009Y167833D01*
X192015Y167855D01*
Y167877D01*
X192020Y167911D01*
X192026Y167949D01*
Y167994D01*
X192031Y168050D01*
Y168116D01*
X192037Y168188D01*
Y168272D01*
X192043Y168366D01*
Y168477D01*
Y168593D01*
Y168599D01*
Y168627D01*
Y168660D01*
Y168710D01*
X192037Y168765D01*
Y168826D01*
X192031Y168899D01*
X192026Y168976D01*
X192009Y169132D01*
X191981Y169281D01*
X191965Y169348D01*
X191948Y169409D01*
X191926Y169465D01*
X191898Y169509D01*
X191893Y169520D01*
X191870Y169542D01*
X191843Y169576D01*
X191798Y169615D01*
X191743Y169653D01*
X191676Y169687D01*
X191604Y169709D01*
X191521Y169720D01*
X191482D01*
X191438Y169709D01*
X191388Y169698D01*
X191321Y169676D01*
X191254Y169648D01*
X191188Y169603D01*
X191121Y169542D01*
X191116Y169537D01*
X191094Y169509D01*
X191066Y169470D01*
X191032Y169415D01*
X190994Y169343D01*
X190960Y169254D01*
X190933Y169148D01*
X190916Y169032D01*
Y169026D01*
Y169015D01*
Y168999D01*
X190910Y168971D01*
Y168937D01*
X190905Y168899D01*
Y168854D01*
Y168804D01*
X190899Y168743D01*
Y168682D01*
X190894Y168543D01*
X190888Y168382D01*
Y168210D01*
Y168205D01*
Y168194D01*
Y168177D01*
Y168160D01*
Y168099D01*
X190894Y168033D01*
Y167961D01*
X190905Y167888D01*
X190910Y167827D01*
X190921Y167778D01*
Y167772D01*
X190927Y167761D01*
X190938Y167744D01*
X190960Y167722D01*
X190982Y167705D01*
X191016Y167683D01*
X191060Y167661D01*
X191116Y167650D01*
X191127D01*
X191149Y167639D01*
X191171Y167622D01*
X191182Y167611D01*
Y167600D01*
Y167594D01*
X191177Y167583D01*
X191155Y167572D01*
X191138Y167567D01*
X191116D01*
X190583Y167572D01*
X190383D01*
X190283Y167567D01*
X190272D01*
X190244Y167572D01*
X190217Y167583D01*
X190211Y167594D01*
X190205Y167605D01*
Y167611D01*
X190211Y167622D01*
X190233Y167639D01*
X190244Y167644D01*
X190267Y167650D01*
X190272D01*
X190289Y167655D01*
X190311D01*
X190339Y167661D01*
X190394Y167683D01*
X190416Y167700D01*
X190439Y167717D01*
Y167722D01*
X190444Y167733D01*
X190455Y167755D01*
X190466Y167789D01*
X190477Y167844D01*
X190483Y167877D01*
X190489Y167922D01*
X190500Y167966D01*
X190505Y168016D01*
X190511Y168077D01*
X190516Y168144D01*
Y168149D01*
Y168160D01*
X190522Y168183D01*
Y168210D01*
Y168249D01*
X190527Y168294D01*
Y168344D01*
X190533Y168405D01*
X190538Y168466D01*
Y168538D01*
X190544Y168621D01*
Y168704D01*
Y168793D01*
X190550Y168887D01*
Y169098D01*
Y169104D01*
Y169109D01*
Y169143D01*
Y169198D01*
Y169265D01*
Y169348D01*
Y169442D01*
Y169548D01*
Y169653D01*
Y169881D01*
X190544Y169998D01*
Y170103D01*
Y170208D01*
Y170303D01*
X190538Y170386D01*
Y170453D01*
Y170458D01*
Y170469D01*
Y170486D01*
X190533Y170508D01*
Y170564D01*
X190522Y170630D01*
X190511Y170708D01*
X190494Y170786D01*
X190472Y170858D01*
X190444Y170919D01*
X190439Y170924D01*
X190427Y170941D01*
X190411Y170969D01*
X190389Y170996D01*
X190355Y171024D01*
X190322Y171052D01*
X190283Y171074D01*
X190239Y171091D01*
X190228D01*
X190205Y171102D01*
X190178Y171119D01*
X190172Y171130D01*
X190167Y171141D01*
Y171146D01*
Y171152D01*
X190172Y171163D01*
X190183Y171169D01*
X190194D01*
X190211Y171174D01*
X190516D01*
X190605Y171180D01*
X190699D01*
X190805Y171185D01*
X190916Y171191D01*
X190905Y169875D01*
D02*
G37*
G36*
X180166Y171041D02*
X180171Y171035D01*
X180177Y171013D01*
X180193Y170985D01*
X180210Y170941D01*
X180232Y170891D01*
X180260Y170835D01*
X180293Y170769D01*
X180326Y170697D01*
X180404Y170536D01*
X180487Y170364D01*
X180576Y170186D01*
X180665Y170014D01*
X180671Y170009D01*
X180676Y169992D01*
X180693Y169964D01*
X180709Y169925D01*
X180732Y169881D01*
X180759Y169825D01*
X180793Y169770D01*
X180826Y169703D01*
X180893Y169565D01*
X180965Y169415D01*
X181037Y169265D01*
X181098Y169126D01*
Y169121D01*
X181103Y169109D01*
X181115Y169093D01*
X181126Y169065D01*
X181142Y169037D01*
X181159Y168999D01*
X181203Y168910D01*
X181253Y168804D01*
X181314Y168688D01*
X181386Y168560D01*
X181459Y168432D01*
X181464Y168444D01*
X181486Y168477D01*
X181514Y168527D01*
X181559Y168599D01*
X181608Y168693D01*
X181670Y168810D01*
X181742Y168943D01*
X181825Y169098D01*
X181914Y169271D01*
X182014Y169465D01*
X182119Y169681D01*
X182230Y169914D01*
X182347Y170170D01*
X182474Y170441D01*
X182602Y170730D01*
X182735Y171041D01*
X183784Y171035D01*
X183795D01*
X183817Y171030D01*
X183834Y171013D01*
X183845Y171002D01*
Y170985D01*
Y170980D01*
X183840Y170963D01*
X183817Y170952D01*
X183801Y170947D01*
X183779Y170941D01*
X183767D01*
X183734Y170935D01*
X183684Y170930D01*
X183623Y170919D01*
X183562Y170902D01*
X183501Y170880D01*
X183446Y170858D01*
X183401Y170825D01*
X183396Y170819D01*
X183385Y170808D01*
X183368Y170786D01*
X183351Y170752D01*
X183329Y170713D01*
X183312Y170663D01*
X183296Y170597D01*
X183285Y170525D01*
Y170514D01*
Y170502D01*
X183279Y170486D01*
Y170458D01*
Y170430D01*
X183273Y170392D01*
Y170353D01*
X183268Y170303D01*
X183262Y170247D01*
Y170181D01*
X183257Y170108D01*
X183251Y170031D01*
Y169948D01*
X183246Y169853D01*
X183240Y169748D01*
Y169742D01*
Y169726D01*
Y169692D01*
Y169653D01*
X183235Y169603D01*
Y169548D01*
Y169487D01*
Y169420D01*
X183229Y169271D01*
Y169109D01*
X183224Y168954D01*
Y168804D01*
Y168799D01*
Y168771D01*
Y168738D01*
Y168688D01*
Y168632D01*
Y168566D01*
Y168421D01*
Y168272D01*
Y168199D01*
Y168133D01*
X183229Y168072D01*
Y168022D01*
Y167977D01*
Y167949D01*
Y167944D01*
X183235Y167933D01*
Y167911D01*
X183246Y167883D01*
X183273Y167822D01*
X183290Y167789D01*
X183318Y167761D01*
X183324Y167755D01*
X183335Y167750D01*
X183357Y167739D01*
X183390Y167722D01*
X183434Y167705D01*
X183484Y167689D01*
X183556Y167672D01*
X183634Y167661D01*
X183645D01*
X183668Y167650D01*
X183690Y167633D01*
X183701Y167622D01*
Y167605D01*
Y167600D01*
X183690Y167589D01*
X183679Y167583D01*
X183668Y167578D01*
X183645Y167572D01*
X182308D01*
X182274Y167578D01*
X182247Y167589D01*
X182236Y167600D01*
X182230Y167611D01*
Y167617D01*
X182236Y167633D01*
X182252Y167650D01*
X182286Y167661D01*
X182297D01*
X182319Y167666D01*
X182358Y167672D01*
X182408Y167683D01*
X182502Y167705D01*
X182546Y167722D01*
X182580Y167739D01*
X182585Y167744D01*
X182591Y167750D01*
X182607Y167761D01*
X182624Y167783D01*
X182641Y167811D01*
X182657Y167844D01*
X182674Y167883D01*
X182691Y167927D01*
Y167933D01*
X182696Y167955D01*
X182702Y167977D01*
Y167999D01*
X182707Y168027D01*
X182713Y168066D01*
Y168105D01*
X182719Y168155D01*
Y168210D01*
X182724Y168272D01*
Y168344D01*
X182730Y168427D01*
Y168516D01*
Y168610D01*
X182780Y169881D01*
X182807Y170508D01*
Y170514D01*
Y170519D01*
Y170547D01*
X182796Y170569D01*
X182791Y170575D01*
X182785Y170580D01*
X182780D01*
X182768Y170575D01*
X182746Y170564D01*
X182730Y170541D01*
X182202Y169503D01*
X182197Y169492D01*
X182180Y169459D01*
X182158Y169409D01*
X182125Y169343D01*
X182086Y169265D01*
X182036Y169176D01*
X181992Y169076D01*
X181936Y168971D01*
X181831Y168754D01*
X181781Y168649D01*
X181731Y168549D01*
X181686Y168455D01*
X181647Y168366D01*
X181614Y168294D01*
X181586Y168233D01*
X181420Y167833D01*
X181414Y167827D01*
X181409Y167805D01*
X181392Y167772D01*
X181381Y167739D01*
X181364Y167705D01*
X181348Y167672D01*
X181337Y167644D01*
X181325Y167633D01*
X181320Y167628D01*
X181309Y167622D01*
X181292Y167617D01*
X181287D01*
X181275Y167628D01*
X181253Y167644D01*
X181248Y167661D01*
X181237Y167683D01*
Y167694D01*
X181231Y167705D01*
X181226Y167722D01*
X181214Y167750D01*
X181198Y167783D01*
X181181Y167822D01*
X181159Y167877D01*
X181131Y167938D01*
X181098Y168011D01*
X181059Y168094D01*
X181015Y168194D01*
X180959Y168305D01*
X180898Y168432D01*
X180826Y168571D01*
X180748Y168727D01*
Y168732D01*
X180737Y168749D01*
X180726Y168777D01*
X180709Y168815D01*
X180687Y168860D01*
X180659Y168915D01*
X180626Y168982D01*
X180593Y169054D01*
X180554Y169132D01*
X180510Y169220D01*
X180465Y169315D01*
X180415Y169415D01*
X180310Y169626D01*
X180193Y169859D01*
X180188Y169864D01*
X180182Y169887D01*
X180166Y169920D01*
X180143Y169959D01*
X180116Y170009D01*
X180088Y170064D01*
X180027Y170181D01*
X179966Y170303D01*
X179938Y170358D01*
X179910Y170408D01*
X179888Y170453D01*
X179866Y170486D01*
X179855Y170514D01*
X179844Y170525D01*
X179838Y170530D01*
X179832Y170541D01*
X179816Y170547D01*
X179805Y170553D01*
X179799D01*
X179794Y170547D01*
X179788Y170525D01*
X179782Y170508D01*
Y170486D01*
X179749Y168882D01*
X179744Y168349D01*
Y168344D01*
Y168333D01*
Y168310D01*
Y168282D01*
X179749Y168249D01*
Y168210D01*
X179760Y168122D01*
X179771Y168027D01*
X179788Y167938D01*
X179816Y167861D01*
X179838Y167827D01*
X179855Y167800D01*
X179860Y167794D01*
X179877Y167778D01*
X179905Y167761D01*
X179938Y167739D01*
X179988Y167711D01*
X180043Y167694D01*
X180110Y167678D01*
X180188Y167672D01*
X180210D01*
X180232Y167666D01*
X180260D01*
X180282Y167655D01*
X180304Y167644D01*
X180321Y167633D01*
X180326Y167611D01*
Y167605D01*
X180321Y167594D01*
X180299Y167578D01*
X180282Y167572D01*
X179555D01*
X179483Y167567D01*
X179394D01*
X179289Y167561D01*
X179166Y167555D01*
X179028Y167544D01*
X179022Y167550D01*
X179017Y167555D01*
X179006Y167572D01*
X179000Y167583D01*
Y167594D01*
X179011Y167611D01*
X179022Y167622D01*
X179039Y167633D01*
X179061Y167639D01*
X179089Y167644D01*
X179100D01*
X179133Y167650D01*
X179178Y167655D01*
X179239Y167666D01*
X179300Y167689D01*
X179366Y167722D01*
X179427Y167761D01*
X179477Y167816D01*
X179483Y167827D01*
X179499Y167850D01*
X179505Y167872D01*
X179516Y167900D01*
X179527Y167933D01*
X179544Y167972D01*
X179555Y168022D01*
X179566Y168072D01*
X179577Y168133D01*
X179583Y168205D01*
X179594Y168282D01*
X179599Y168366D01*
X179605Y168460D01*
Y168566D01*
Y169032D01*
X179638Y170220D01*
Y170225D01*
Y170236D01*
Y170258D01*
Y170286D01*
X179633Y170319D01*
Y170358D01*
X179622Y170441D01*
X179605Y170536D01*
X179583Y170630D01*
X179555Y170713D01*
X179533Y170747D01*
X179511Y170780D01*
X179505Y170786D01*
X179488Y170808D01*
X179461Y170830D01*
X179422Y170863D01*
X179372Y170897D01*
X179311Y170924D01*
X179239Y170952D01*
X179155Y170969D01*
X179139D01*
X179105Y170980D01*
X179072Y170996D01*
X179061Y171008D01*
X179056Y171019D01*
Y171024D01*
X179067Y171046D01*
X179089Y171063D01*
X179105Y171069D01*
X179222D01*
X180166Y171041D01*
D02*
G37*
G36*
X221496Y170447D02*
X221508Y170425D01*
X221513Y170408D01*
Y170380D01*
Y170036D01*
Y170025D01*
Y169998D01*
Y169948D01*
Y169887D01*
Y169809D01*
X221508Y169720D01*
Y169631D01*
Y169531D01*
Y169326D01*
X221502Y169220D01*
Y169126D01*
Y169037D01*
Y168954D01*
Y168882D01*
Y168826D01*
Y168815D01*
Y168788D01*
Y168743D01*
Y168688D01*
Y168621D01*
Y168543D01*
X221508Y168460D01*
Y168371D01*
Y168194D01*
X221513Y168111D01*
X221519Y168033D01*
Y167961D01*
X221524Y167900D01*
X221530Y167850D01*
X221535Y167816D01*
Y167811D01*
X221546Y167794D01*
X221557Y167778D01*
X221585Y167750D01*
X221618Y167727D01*
X221668Y167700D01*
X221729Y167683D01*
X221807Y167672D01*
X221824D01*
X221863Y167661D01*
X221901Y167644D01*
X221913Y167633D01*
X221918Y167622D01*
Y167611D01*
X221907Y167594D01*
X221896Y167583D01*
X221885Y167572D01*
X221863Y167567D01*
X221835Y167561D01*
X221818D01*
X221785Y167567D01*
X221746D01*
X221713Y167572D01*
X221025D01*
X220919Y167567D01*
X220792D01*
X220764Y167561D01*
X220730D01*
X220703Y167567D01*
X220669Y167578D01*
X220664Y167589D01*
X220658Y167605D01*
Y167611D01*
X220669Y167633D01*
X220680Y167639D01*
X220697Y167650D01*
X220719Y167655D01*
X220747Y167661D01*
X220758D01*
X220792Y167666D01*
X220836Y167672D01*
X220891Y167683D01*
X220952Y167700D01*
X221008Y167722D01*
X221052Y167750D01*
X221086Y167789D01*
X221091Y167794D01*
X221097Y167811D01*
X221108Y167844D01*
X221119Y167894D01*
X221130Y167961D01*
X221136Y168044D01*
X221141Y168094D01*
X221147Y168149D01*
Y168216D01*
Y168282D01*
Y168288D01*
Y168294D01*
Y168327D01*
Y168382D01*
Y168455D01*
Y168538D01*
Y168632D01*
Y168738D01*
Y168849D01*
Y169082D01*
X221141Y169193D01*
Y169304D01*
Y169404D01*
Y169492D01*
X221136Y169576D01*
Y169637D01*
Y169642D01*
Y169648D01*
Y169665D01*
X221130Y169687D01*
Y169737D01*
X221119Y169798D01*
X221108Y169864D01*
X221091Y169931D01*
X221069Y169992D01*
X221041Y170036D01*
X221036Y170042D01*
X221025Y170053D01*
X221008Y170070D01*
X220980Y170086D01*
X220941Y170103D01*
X220897Y170120D01*
X220841Y170131D01*
X220780Y170136D01*
X220719D01*
X220669Y170142D01*
X220653D01*
X220636Y170147D01*
X220631Y170153D01*
X220625Y170158D01*
X220614Y170175D01*
X220608Y170197D01*
Y170203D01*
X220620Y170220D01*
X220631Y170225D01*
X220647Y170231D01*
X220669Y170236D01*
X220703Y170242D01*
X220736D01*
X220769Y170247D01*
X220819D01*
X220880Y170253D01*
X220947Y170264D01*
X221019Y170281D01*
X221097Y170297D01*
X221108D01*
X221130Y170308D01*
X221169Y170319D01*
X221219Y170336D01*
X221324Y170380D01*
X221374Y170408D01*
X221424Y170436D01*
X221430Y170441D01*
X221441Y170447D01*
X221458Y170453D01*
X221474Y170458D01*
X221480D01*
X221496Y170447D01*
D02*
G37*
G36*
X185199Y169837D02*
X185266Y169831D01*
X185344Y169820D01*
X185427Y169803D01*
X185505Y169781D01*
X185577Y169753D01*
X185582Y169748D01*
X185605Y169737D01*
X185638Y169720D01*
X185677Y169698D01*
X185749Y169631D01*
X185782Y169592D01*
X185804Y169553D01*
Y169548D01*
X185810Y169531D01*
X185821Y169503D01*
X185827Y169459D01*
X185838Y169398D01*
X185843Y169326D01*
X185849Y169237D01*
Y169126D01*
X185838Y168427D01*
Y168421D01*
Y168410D01*
Y168388D01*
Y168360D01*
Y168327D01*
Y168288D01*
X185843Y168205D01*
X185849Y168111D01*
X185854Y168011D01*
X185865Y167922D01*
X185882Y167850D01*
Y167844D01*
X185893Y167822D01*
X185904Y167800D01*
X185926Y167766D01*
X185949Y167739D01*
X185982Y167711D01*
X186021Y167689D01*
X186071Y167683D01*
X186109D01*
X186143Y167689D01*
X186187Y167694D01*
X186198D01*
X186221Y167689D01*
X186243Y167678D01*
X186254Y167666D01*
Y167650D01*
Y167644D01*
X186248Y167633D01*
X186226Y167617D01*
X186209Y167611D01*
X186187Y167600D01*
X186160Y167589D01*
X186126Y167583D01*
X186082Y167572D01*
X186032Y167567D01*
X185971Y167561D01*
X185899Y167555D01*
X185821Y167550D01*
X185704D01*
X185677Y167555D01*
X185643Y167561D01*
X185571Y167578D01*
X185544Y167594D01*
X185516Y167617D01*
Y167622D01*
X185510Y167633D01*
X185499Y167650D01*
X185494Y167678D01*
X185482Y167717D01*
X185471Y167766D01*
X185466Y167833D01*
Y167905D01*
X185460Y167900D01*
X185444Y167872D01*
X185416Y167839D01*
X185377Y167800D01*
X185333Y167755D01*
X185277Y167705D01*
X185216Y167661D01*
X185149Y167622D01*
X185144Y167617D01*
X185116Y167611D01*
X185083Y167594D01*
X185033Y167578D01*
X184972Y167561D01*
X184905Y167550D01*
X184827Y167539D01*
X184744Y167533D01*
X184700D01*
X184650Y167539D01*
X184594Y167550D01*
X184528Y167567D01*
X184456Y167594D01*
X184389Y167628D01*
X184328Y167672D01*
X184323Y167678D01*
X184306Y167700D01*
X184278Y167727D01*
X184256Y167772D01*
X184228Y167827D01*
X184200Y167894D01*
X184184Y167966D01*
X184178Y168050D01*
Y168055D01*
Y168077D01*
X184184Y168116D01*
X184189Y168155D01*
X184200Y168205D01*
X184217Y168260D01*
X184239Y168321D01*
X184267Y168377D01*
X184273Y168382D01*
X184284Y168399D01*
X184300Y168427D01*
X184328Y168460D01*
X184389Y168532D01*
X184428Y168566D01*
X184472Y168593D01*
X184478Y168599D01*
X184494Y168604D01*
X184528Y168621D01*
X184572Y168638D01*
X184628Y168666D01*
X184700Y168693D01*
X184789Y168727D01*
X184889Y168760D01*
X184894D01*
X184905Y168765D01*
X184927Y168771D01*
X184955Y168782D01*
X185027Y168810D01*
X185110Y168843D01*
X185199Y168876D01*
X185277Y168915D01*
X185316Y168937D01*
X185349Y168954D01*
X185377Y168976D01*
X185394Y168993D01*
X185399Y168999D01*
X185410Y169010D01*
X185421Y169032D01*
X185438Y169060D01*
X185455Y169093D01*
X185471Y169137D01*
X185477Y169182D01*
X185482Y169237D01*
Y169248D01*
Y169276D01*
X185477Y169320D01*
X185471Y169370D01*
X185455Y169431D01*
X185438Y169492D01*
X185410Y169548D01*
X185371Y169603D01*
X185366Y169609D01*
X185349Y169626D01*
X185327Y169648D01*
X185288Y169670D01*
X185244Y169692D01*
X185194Y169714D01*
X185127Y169731D01*
X185055Y169737D01*
X185027D01*
X185000Y169731D01*
X184966Y169726D01*
X184883Y169703D01*
X184844Y169687D01*
X184811Y169659D01*
X184805Y169653D01*
X184800Y169642D01*
X184783Y169620D01*
X184766Y169592D01*
X184744Y169553D01*
X184722Y169498D01*
X184700Y169437D01*
X184683Y169359D01*
Y169348D01*
X184672Y169320D01*
X184661Y169281D01*
X184639Y169243D01*
X184611Y169198D01*
X184572Y169159D01*
X184528Y169132D01*
X184500Y169126D01*
X184472Y169121D01*
X184461D01*
X184433Y169126D01*
X184389Y169143D01*
X184339Y169176D01*
Y169182D01*
X184328Y169187D01*
X184306Y169220D01*
X184295Y169243D01*
X184284Y169271D01*
X184278Y169309D01*
X184273Y169348D01*
Y169359D01*
X184278Y169381D01*
X184284Y169420D01*
X184300Y169465D01*
X184328Y169520D01*
X184361Y169576D01*
X184417Y169637D01*
X184489Y169692D01*
X184500Y169698D01*
X184528Y169714D01*
X184578Y169742D01*
X184650Y169770D01*
X184733Y169792D01*
X184839Y169820D01*
X184961Y169837D01*
X185094Y169842D01*
X185144D01*
X185199Y169837D01*
D02*
G37*
G36*
X194157Y169848D02*
X194185D01*
X194224Y169837D01*
X194312Y169820D01*
X194407Y169787D01*
X194518Y169737D01*
X194573Y169703D01*
X194629Y169670D01*
X194684Y169626D01*
X194740Y169576D01*
X194745Y169570D01*
X194751Y169565D01*
X194768Y169548D01*
X194784Y169526D01*
X194834Y169470D01*
X194890Y169393D01*
X194940Y169298D01*
X194990Y169193D01*
X195023Y169071D01*
X195028Y169004D01*
X195034Y168937D01*
Y168926D01*
Y168904D01*
X195023Y168876D01*
X195012Y168854D01*
X195006Y168849D01*
X194995D01*
X194978Y168843D01*
X194956Y168838D01*
X194923D01*
X194873Y168832D01*
X194812D01*
X193480Y168810D01*
Y168804D01*
Y168788D01*
Y168760D01*
Y168732D01*
X193474Y168660D01*
Y168627D01*
Y168593D01*
Y168588D01*
Y168577D01*
Y168554D01*
X193480Y168532D01*
Y168499D01*
X193485Y168460D01*
X193502Y168371D01*
X193530Y168272D01*
X193569Y168166D01*
X193624Y168055D01*
X193696Y167955D01*
X193708Y167944D01*
X193735Y167916D01*
X193785Y167872D01*
X193846Y167827D01*
X193930Y167783D01*
X194024Y167739D01*
X194129Y167711D01*
X194185Y167705D01*
X194246Y167700D01*
X194279D01*
X194301Y167705D01*
X194362Y167711D01*
X194440Y167733D01*
X194529Y167761D01*
X194629Y167805D01*
X194729Y167872D01*
X194784Y167911D01*
X194834Y167955D01*
X194840Y167961D01*
X194845Y167966D01*
X194878Y167994D01*
X194912Y168016D01*
X194929Y168022D01*
X194940Y168027D01*
X194945D01*
X194962Y168016D01*
X194973Y167999D01*
X194978Y167977D01*
X194984Y167955D01*
X194978Y167949D01*
X194967Y167927D01*
X194940Y167888D01*
X194906Y167850D01*
X194856Y167800D01*
X194795Y167744D01*
X194723Y167694D01*
X194640Y167644D01*
X194629Y167639D01*
X194596Y167622D01*
X194546Y167605D01*
X194479Y167583D01*
X194401Y167555D01*
X194307Y167539D01*
X194207Y167522D01*
X194096Y167517D01*
X194052D01*
X194024Y167522D01*
X193985Y167528D01*
X193941Y167533D01*
X193835Y167555D01*
X193719Y167594D01*
X193658Y167622D01*
X193591Y167650D01*
X193530Y167689D01*
X193469Y167727D01*
X193408Y167778D01*
X193347Y167833D01*
X193341Y167839D01*
X193336Y167850D01*
X193319Y167866D01*
X193302Y167888D01*
X193280Y167922D01*
X193252Y167961D01*
X193225Y168005D01*
X193197Y168050D01*
X193169Y168105D01*
X193141Y168166D01*
X193091Y168305D01*
X193058Y168460D01*
X193053Y168543D01*
X193047Y168632D01*
Y168638D01*
Y168654D01*
Y168682D01*
X193053Y168721D01*
X193058Y168765D01*
X193064Y168815D01*
X193075Y168876D01*
X193091Y168937D01*
X193130Y169076D01*
X193158Y169148D01*
X193186Y169220D01*
X193225Y169293D01*
X193269Y169365D01*
X193319Y169437D01*
X193380Y169503D01*
X193386Y169509D01*
X193397Y169520D01*
X193413Y169537D01*
X193436Y169559D01*
X193469Y169587D01*
X193508Y169615D01*
X193596Y169681D01*
X193702Y169742D01*
X193824Y169798D01*
X193891Y169820D01*
X193957Y169837D01*
X194024Y169848D01*
X194096Y169853D01*
X194129D01*
X194157Y169848D01*
D02*
G37*
G36*
X189168Y170586D02*
X189184Y170564D01*
X189190Y170547D01*
Y170519D01*
Y170514D01*
Y170502D01*
X189184Y170469D01*
Y170464D01*
Y170453D01*
Y170430D01*
Y170403D01*
X189179Y170369D01*
Y170331D01*
Y170236D01*
Y169825D01*
X189756Y169831D01*
X189806D01*
X189834Y169825D01*
X189861Y169820D01*
X189883Y169814D01*
X189906Y169803D01*
X189911Y169792D01*
Y169787D01*
Y169775D01*
X189906Y169753D01*
Y169726D01*
X189889Y169676D01*
X189878Y169659D01*
X189867Y169642D01*
X189795D01*
X189767Y169637D01*
X189689D01*
X189639Y169631D01*
X189584D01*
X189523Y169626D01*
X189451Y169620D01*
X189367Y169615D01*
X189279Y169609D01*
X189179Y169603D01*
Y169598D01*
Y169576D01*
X189173Y169548D01*
Y169503D01*
Y169448D01*
X189168Y169387D01*
Y169315D01*
X189162Y169237D01*
X189156Y169154D01*
Y169065D01*
X189151Y168871D01*
X189145Y168660D01*
Y168449D01*
Y168444D01*
Y168432D01*
Y168410D01*
Y168377D01*
X189151Y168344D01*
Y168305D01*
X189156Y168216D01*
X189168Y168122D01*
X189190Y168027D01*
X189212Y167944D01*
X189229Y167911D01*
X189245Y167883D01*
X189251Y167877D01*
X189268Y167861D01*
X189290Y167844D01*
X189323Y167822D01*
X189367Y167794D01*
X189417Y167778D01*
X189478Y167761D01*
X189545Y167755D01*
X189567D01*
X189601Y167761D01*
X189634Y167766D01*
X189684Y167778D01*
X189734Y167800D01*
X189795Y167822D01*
X189856Y167855D01*
X189861D01*
X189867Y167861D01*
X189889Y167877D01*
X189911Y167888D01*
X189928Y167894D01*
X189934D01*
X189950Y167888D01*
X189961Y167877D01*
X189967Y167855D01*
Y167850D01*
Y167844D01*
X189956Y167827D01*
X189945Y167805D01*
X189922Y167778D01*
X189889Y167739D01*
X189839Y167700D01*
X189778Y167650D01*
X189767Y167644D01*
X189745Y167628D01*
X189706Y167605D01*
X189650Y167583D01*
X189584Y167561D01*
X189501Y167539D01*
X189412Y167522D01*
X189312Y167517D01*
X189301D01*
X189268Y167522D01*
X189218Y167528D01*
X189162Y167539D01*
X189095Y167561D01*
X189029Y167594D01*
X188962Y167639D01*
X188907Y167700D01*
X188901Y167711D01*
X188884Y167733D01*
X188862Y167778D01*
X188840Y167844D01*
X188818Y167922D01*
X188796Y168016D01*
X188779Y168133D01*
X188774Y168266D01*
Y168272D01*
Y168282D01*
Y168310D01*
Y168344D01*
Y168382D01*
X188779Y168438D01*
Y168505D01*
Y168577D01*
X188785Y168666D01*
Y168765D01*
X188790Y168871D01*
X188796Y168993D01*
X188801Y169126D01*
X188807Y169276D01*
X188812Y169431D01*
X188823Y169603D01*
X188785D01*
X188751Y169609D01*
X188707D01*
X188646Y169615D01*
X188568Y169620D01*
X188407Y169631D01*
X188396D01*
X188380Y169637D01*
X188363Y169648D01*
X188352Y169670D01*
Y169676D01*
X188357Y169692D01*
X188380Y169709D01*
X188391Y169714D01*
X188413Y169726D01*
X188418D01*
X188435Y169737D01*
X188463Y169748D01*
X188502Y169770D01*
X188551Y169798D01*
X188613Y169837D01*
X188690Y169892D01*
X188779Y169953D01*
X188785D01*
X188790Y169964D01*
X188818Y169992D01*
X188862Y170031D01*
X188912Y170097D01*
X188962Y170175D01*
X189012Y170270D01*
X189051Y170375D01*
X189079Y170502D01*
Y170508D01*
Y170519D01*
X189090Y170553D01*
X189112Y170580D01*
X189123Y170591D01*
X189140Y170597D01*
X189145D01*
X189168Y170586D01*
D02*
G37*
G36*
X187303D02*
X187320Y170564D01*
X187325Y170547D01*
Y170519D01*
Y170514D01*
Y170502D01*
X187320Y170469D01*
Y170464D01*
Y170453D01*
Y170430D01*
Y170403D01*
X187314Y170369D01*
Y170331D01*
Y170236D01*
Y169825D01*
X187891Y169831D01*
X187941D01*
X187969Y169825D01*
X187997Y169820D01*
X188019Y169814D01*
X188041Y169803D01*
X188047Y169792D01*
Y169787D01*
Y169775D01*
X188041Y169753D01*
Y169726D01*
X188024Y169676D01*
X188013Y169659D01*
X188002Y169642D01*
X187930D01*
X187902Y169637D01*
X187824D01*
X187775Y169631D01*
X187719D01*
X187658Y169626D01*
X187586Y169620D01*
X187503Y169615D01*
X187414Y169609D01*
X187314Y169603D01*
Y169598D01*
Y169576D01*
X187308Y169548D01*
Y169503D01*
Y169448D01*
X187303Y169387D01*
Y169315D01*
X187297Y169237D01*
X187292Y169154D01*
Y169065D01*
X187286Y168871D01*
X187281Y168660D01*
Y168449D01*
Y168444D01*
Y168432D01*
Y168410D01*
Y168377D01*
X187286Y168344D01*
Y168305D01*
X187292Y168216D01*
X187303Y168122D01*
X187325Y168027D01*
X187347Y167944D01*
X187364Y167911D01*
X187381Y167883D01*
X187386Y167877D01*
X187403Y167861D01*
X187425Y167844D01*
X187458Y167822D01*
X187503Y167794D01*
X187552Y167778D01*
X187614Y167761D01*
X187680Y167755D01*
X187702D01*
X187736Y167761D01*
X187769Y167766D01*
X187819Y167778D01*
X187869Y167800D01*
X187930Y167822D01*
X187991Y167855D01*
X187997D01*
X188002Y167861D01*
X188024Y167877D01*
X188047Y167888D01*
X188063Y167894D01*
X188069D01*
X188085Y167888D01*
X188096Y167877D01*
X188102Y167855D01*
Y167850D01*
Y167844D01*
X188091Y167827D01*
X188080Y167805D01*
X188058Y167778D01*
X188024Y167739D01*
X187974Y167700D01*
X187913Y167650D01*
X187902Y167644D01*
X187880Y167628D01*
X187841Y167605D01*
X187786Y167583D01*
X187719Y167561D01*
X187636Y167539D01*
X187547Y167522D01*
X187447Y167517D01*
X187436D01*
X187403Y167522D01*
X187353Y167528D01*
X187297Y167539D01*
X187231Y167561D01*
X187164Y167594D01*
X187098Y167639D01*
X187042Y167700D01*
X187036Y167711D01*
X187020Y167733D01*
X186998Y167778D01*
X186975Y167844D01*
X186953Y167922D01*
X186931Y168016D01*
X186914Y168133D01*
X186909Y168266D01*
Y168272D01*
Y168282D01*
Y168310D01*
Y168344D01*
Y168382D01*
X186914Y168438D01*
Y168505D01*
Y168577D01*
X186920Y168666D01*
Y168765D01*
X186925Y168871D01*
X186931Y168993D01*
X186936Y169126D01*
X186942Y169276D01*
X186948Y169431D01*
X186959Y169603D01*
X186920D01*
X186887Y169609D01*
X186842D01*
X186781Y169615D01*
X186703Y169620D01*
X186542Y169631D01*
X186531D01*
X186515Y169637D01*
X186498Y169648D01*
X186487Y169670D01*
Y169676D01*
X186493Y169692D01*
X186515Y169709D01*
X186526Y169714D01*
X186548Y169726D01*
X186554D01*
X186570Y169737D01*
X186598Y169748D01*
X186637Y169770D01*
X186687Y169798D01*
X186748Y169837D01*
X186826Y169892D01*
X186914Y169953D01*
X186920D01*
X186925Y169964D01*
X186953Y169992D01*
X186998Y170031D01*
X187048Y170097D01*
X187098Y170175D01*
X187147Y170270D01*
X187186Y170375D01*
X187214Y170502D01*
Y170508D01*
Y170519D01*
X187225Y170553D01*
X187247Y170580D01*
X187258Y170591D01*
X187275Y170597D01*
X187281D01*
X187303Y170586D01*
D02*
G37*
%LPC*%
G36*
X185460Y168943D02*
X185455Y168937D01*
X185444Y168926D01*
X185421Y168904D01*
X185388Y168871D01*
X185338Y168832D01*
X185277Y168793D01*
X185199Y168743D01*
X185105Y168688D01*
X185099D01*
X185094Y168682D01*
X185061Y168666D01*
X185011Y168638D01*
X184950Y168599D01*
X184883Y168560D01*
X184822Y168510D01*
X184755Y168466D01*
X184705Y168416D01*
X184700Y168410D01*
X184689Y168394D01*
X184667Y168366D01*
X184650Y168327D01*
X184628Y168282D01*
X184606Y168227D01*
X184594Y168166D01*
X184589Y168099D01*
Y168094D01*
Y168072D01*
X184594Y168038D01*
X184600Y167999D01*
X184611Y167955D01*
X184628Y167911D01*
X184650Y167861D01*
X184683Y167816D01*
X184689Y167811D01*
X184700Y167800D01*
X184722Y167778D01*
X184750Y167761D01*
X184789Y167739D01*
X184833Y167717D01*
X184877Y167705D01*
X184933Y167700D01*
X184961D01*
X184988Y167705D01*
X185027Y167711D01*
X185066Y167722D01*
X185116Y167739D01*
X185166Y167761D01*
X185216Y167789D01*
X185222Y167794D01*
X185238Y167805D01*
X185260Y167827D01*
X185294Y167855D01*
X185321Y167888D01*
X185355Y167927D01*
X185388Y167977D01*
X185416Y168027D01*
X185421Y168033D01*
X185427Y168055D01*
X185438Y168088D01*
X185449Y168138D01*
X185460Y168199D01*
X185471Y168277D01*
X185482Y168366D01*
Y168466D01*
Y168477D01*
Y168505D01*
Y168549D01*
Y168604D01*
X185477Y168677D01*
X185471Y168754D01*
X185466Y168849D01*
X185460Y168943D01*
D02*
G37*
G36*
X194107Y169759D02*
X194102D01*
X194074Y169753D01*
X194035Y169748D01*
X193991Y169737D01*
X193930Y169709D01*
X193869Y169676D01*
X193796Y169631D01*
X193724Y169565D01*
X193719Y169553D01*
X193696Y169531D01*
X193663Y169481D01*
X193624Y169415D01*
X193580Y169332D01*
X193541Y169220D01*
X193524Y169159D01*
X193508Y169093D01*
X193491Y169021D01*
X193480Y168943D01*
X193569D01*
X193608Y168937D01*
X193796D01*
X193913Y168932D01*
X194151D01*
X194290Y168937D01*
X194318D01*
X194346Y168943D01*
X194379Y168949D01*
X194462Y168965D01*
X194501Y168982D01*
X194534Y168999D01*
X194540Y169004D01*
X194551Y169010D01*
X194562Y169026D01*
X194579Y169049D01*
X194596Y169076D01*
X194612Y169109D01*
X194618Y169148D01*
X194623Y169198D01*
Y169209D01*
Y169237D01*
X194618Y169281D01*
X194607Y169332D01*
X194584Y169393D01*
X194557Y169459D01*
X194518Y169526D01*
X194468Y169592D01*
X194462Y169598D01*
X194440Y169620D01*
X194407Y169648D01*
X194368Y169676D01*
X194312Y169709D01*
X194251Y169731D01*
X194185Y169753D01*
X194107Y169759D01*
D02*
G37*
%LPD*%
D10*
X345823Y132996D02*
X345378Y133920D01*
X344379Y134148D01*
X343578Y133509D01*
Y132484D01*
X344379Y131845D01*
X345378Y132073D01*
X345823Y132996D01*
X139776Y120138D02*
X139331Y121061D01*
X138332Y121289D01*
X137530Y120650D01*
Y119625D01*
X138332Y118986D01*
X139331Y119214D01*
X139776Y120138D01*
X197685Y140642D02*
X197240Y141565D01*
X196241Y141793D01*
X195440Y141154D01*
Y140129D01*
X196241Y139490D01*
X197240Y139718D01*
X197685Y140642D01*
D11*
X349110Y141500D02*
X348372Y141926D01*
Y141074D01*
X349110Y141500D01*
X134146Y111772D02*
X133407Y112198D01*
Y111346D01*
X134146Y111772D01*
X188492Y144618D02*
X187754Y145044D01*
Y144192D01*
X188492Y144618D01*
X109492Y101677D02*
X108754Y102103D01*
Y101251D01*
X109492Y101677D01*
D12*
X348579Y129000D02*
X347622Y128810D01*
X346811Y128268D01*
X346269Y127457D01*
X346079Y126500D01*
X346269Y125543D01*
X346811Y124732D01*
X347622Y124190D01*
X348579Y124000D01*
X200500Y144579D02*
X200690Y143622D01*
X201232Y142811D01*
X202043Y142269D01*
X203000Y142079D01*
X203957Y142269D01*
X204768Y142811D01*
X205310Y143622D01*
X205500Y144579D01*
X290500Y138850D02*
Y141705D01*
Y167295D02*
Y170150D01*
X285579Y167295D02*
X295421D01*
X285579Y141705D02*
Y167295D01*
Y141705D02*
X295421D01*
Y167295D01*
X308421Y116067D02*
Y136933D01*
X348579Y116067D02*
Y124000D01*
Y129000D02*
Y136933D01*
X308421Y116067D02*
X348579D01*
X308421Y136933D02*
X348579D01*
X255000Y103240D02*
Y115760D01*
X275000D01*
X255000Y103240D02*
X275000D01*
Y115760D01*
X271421Y141705D02*
Y167295D01*
X261579Y141705D02*
X271421D01*
X261579D02*
Y167295D01*
X271421D01*
X266500D02*
Y170150D01*
Y138850D02*
Y141705D01*
X229689Y126083D02*
X253311D01*
X278500Y167295D02*
Y170150D01*
Y138850D02*
Y141705D01*
X273579D02*
X283421D01*
Y167295D01*
X273579D02*
X283421D01*
X273579Y141705D02*
Y167295D01*
X297461Y146736D02*
Y176264D01*
X317539D01*
Y146736D02*
Y176264D01*
X297461Y146736D02*
X317539D01*
X293295Y123500D02*
X296150D01*
X264850D02*
X267705D01*
Y118579D02*
Y128421D01*
Y118579D02*
X293295D01*
Y128421D01*
X267705D02*
X293295D01*
X231000Y103240D02*
Y115760D01*
X251000D01*
X231000Y103240D02*
X251000D01*
Y115760D01*
X134658Y116201D02*
X154342D01*
X134658Y128799D02*
X154342D01*
X134658Y116201D02*
Y128799D01*
X154342Y116201D02*
Y128799D01*
X218295Y152500D02*
X221150D01*
X189850D02*
X192705D01*
Y147579D02*
Y157421D01*
Y147579D02*
X218295D01*
Y157421D01*
X192705D02*
X218295D01*
X172500Y116850D02*
Y119705D01*
Y145295D02*
Y148150D01*
X167579Y145295D02*
X177421D01*
X167579Y119705D02*
Y145295D01*
Y119705D02*
X177421D01*
Y145295D01*
X123500Y136138D02*
Y140862D01*
X192567Y104421D02*
Y144579D01*
X213433Y104421D02*
Y144579D01*
X192567D02*
X200500D01*
X205500D02*
X213433D01*
X192567Y104421D02*
X213433D01*
X159417Y143189D02*
Y166811D01*
X123000Y117638D02*
Y122362D01*
Y106638D02*
Y111362D01*
X157138Y128000D02*
X161862D01*
X104000Y103750D02*
X114000D01*
Y164250D01*
X104000D02*
X114000D01*
X104000Y103750D02*
Y164250D01*
X157138Y113500D02*
X161862D01*
X123000Y126138D02*
Y130862D01*
D13*
X258232Y137500D02*
X258202Y138501D01*
X258113Y139498D01*
X257963Y140488D01*
X257755Y141467D01*
X257489Y142432D01*
X257165Y143379D01*
X256786Y144306D01*
X256351Y145208D01*
X255864Y146082D01*
X255325Y146926D01*
X254736Y147736D01*
X254101Y148509D01*
X253420Y149243D01*
X252696Y149934D01*
X251932Y150582D01*
X251131Y151182D01*
X250296Y151734D01*
X249429Y152234D01*
X248534Y152682D01*
X247613Y153076D01*
X246671Y153413D01*
X245710Y153694D01*
X244734Y153917D01*
X243746Y154081D01*
X242750Y154185D01*
X241750Y154230D01*
X240749Y154215D01*
X239751Y154141D01*
X238759Y154006D01*
X237777Y153813D01*
X236808Y153561D01*
X235856Y153252D01*
X234924Y152886D01*
X234015Y152465D01*
X233134Y151991D01*
X232282Y151464D01*
X231464Y150888D01*
X230681Y150264D01*
X229937Y149594D01*
X229234Y148881D01*
X228576Y148127D01*
X227963Y147335D01*
X227399Y146508D01*
X226886Y145648D01*
X226425Y144760D01*
X226017Y143845D01*
X225666Y142908D01*
X225371Y141951D01*
X225133Y140979D01*
X224955Y139994D01*
X224835Y139000D01*
X224775Y138001D01*
Y136999D01*
X224835Y136000D01*
X224955Y135006D01*
X225133Y134021D01*
X225371Y133049D01*
X225666Y132092D01*
X226018Y131155D01*
X226425Y130240D01*
X226886Y129351D01*
X227399Y128492D01*
X227963Y127665D01*
X228576Y126873D01*
X229234Y126119D01*
X229937Y125406D01*
X230681Y124736D01*
X231464Y124112D01*
X232282Y123536D01*
X233134Y123009D01*
X234015Y122535D01*
X234924Y122114D01*
X235856Y121748D01*
X236808Y121439D01*
X237777Y121187D01*
X238759Y120994D01*
X239751Y120859D01*
X240749Y120785D01*
X241750Y120770D01*
X242750Y120815D01*
X243746Y120919D01*
X244734Y121083D01*
X245710Y121306D01*
X246671Y121587D01*
X247613Y121924D01*
X248534Y122318D01*
X249429Y122766D01*
X250296Y123266D01*
X251131Y123818D01*
X251932Y124418D01*
X252696Y125066D01*
X253420Y125757D01*
X254101Y126491D01*
X254736Y127264D01*
X255325Y128074D01*
X255864Y128918D01*
X256351Y129792D01*
X256786Y130694D01*
X257165Y131621D01*
X257489Y132568D01*
X257755Y133533D01*
X257963Y134512D01*
X258113Y135502D01*
X258202Y136499D01*
X258232Y137500D01*
X164732Y155000D02*
X164702Y156001D01*
X164613Y156998D01*
X164463Y157988D01*
X164255Y158967D01*
X163989Y159932D01*
X163665Y160879D01*
X163286Y161806D01*
X162851Y162708D01*
X162364Y163582D01*
X161825Y164426D01*
X161236Y165235D01*
X160601Y166009D01*
X159920Y166743D01*
X159196Y167435D01*
X158432Y168082D01*
X157631Y168682D01*
X156796Y169234D01*
X155929Y169734D01*
X155034Y170182D01*
X154113Y170576D01*
X153171Y170913D01*
X152210Y171194D01*
X151234Y171417D01*
X150246Y171581D01*
X149250Y171686D01*
X148250Y171730D01*
X147249Y171715D01*
X146251Y171641D01*
X145259Y171506D01*
X144277Y171313D01*
X143308Y171061D01*
X142356Y170752D01*
X141424Y170386D01*
X140515Y169965D01*
X139634Y169491D01*
X138782Y168964D01*
X137964Y168388D01*
X137181Y167764D01*
X136437Y167094D01*
X135734Y166381D01*
X135076Y165627D01*
X134463Y164835D01*
X133899Y164008D01*
X133386Y163148D01*
X132925Y162260D01*
X132518Y161345D01*
X132166Y160408D01*
X131871Y159451D01*
X131633Y158479D01*
X131455Y157494D01*
X131335Y156500D01*
X131275Y155500D01*
Y154499D01*
X131335Y153500D01*
X131455Y152506D01*
X131633Y151521D01*
X131871Y150549D01*
X132166Y149592D01*
X132518Y148655D01*
X132925Y147740D01*
X133386Y146852D01*
X133899Y145992D01*
X134463Y145165D01*
X135076Y144373D01*
X135734Y143619D01*
X136437Y142906D01*
X137181Y142236D01*
X137964Y141612D01*
X138782Y141036D01*
X139634Y140509D01*
X140515Y140035D01*
X141424Y139614D01*
X142356Y139249D01*
X143308Y138939D01*
X144277Y138687D01*
X145259Y138494D01*
X146251Y138359D01*
X147249Y138285D01*
X148250Y138270D01*
X149250Y138314D01*
X150246Y138419D01*
X151234Y138583D01*
X152210Y138806D01*
X153171Y139087D01*
X154113Y139424D01*
X155034Y139818D01*
X155929Y140266D01*
X156796Y140766D01*
X157631Y141318D01*
X158432Y141918D01*
X159196Y142566D01*
X159920Y143257D01*
X160601Y143991D01*
X161236Y144764D01*
X161825Y145574D01*
X162364Y146418D01*
X162851Y147292D01*
X163286Y148194D01*
X163665Y149121D01*
X163989Y150068D01*
X164255Y151033D01*
X164463Y152012D01*
X164613Y153002D01*
X164702Y153999D01*
X164732Y155000D01*
D14*
X297501Y140000D02*
Y142999D01*
X299000D01*
X299500Y142500D01*
Y141500D01*
X299000Y141000D01*
X297501D01*
X298500D02*
X299500Y140000D01*
X300500Y140500D02*
X301000Y140000D01*
X301999D01*
X302499Y140500D01*
Y142500D01*
X301999Y142999D01*
X301000D01*
X300500Y142500D01*
Y142000D01*
X301000Y141500D01*
X302499D01*
X323501Y149999D02*
Y147500D01*
X324001Y147001D01*
X325000D01*
X325500Y147500D01*
Y149999D01*
X326500Y149500D02*
X327000Y149999D01*
X327999D01*
X328499Y149500D01*
Y149000D01*
X327999Y148500D01*
X327500D01*
X327999D01*
X328499Y148000D01*
Y147500D01*
X327999Y147001D01*
X327000D01*
X326500Y147500D01*
X281000Y111500D02*
X280500Y111999D01*
X279501D01*
X279001Y111500D01*
Y109500D01*
X279501Y109001D01*
X280500D01*
X281000Y109500D01*
X283999Y111999D02*
X282000D01*
Y110500D01*
X282999Y111000D01*
X283499D01*
X283999Y110500D01*
Y109500D01*
X283499Y109001D01*
X282500D01*
X282000Y109500D01*
X251001Y171001D02*
Y174000D01*
X252500D01*
X253000Y173500D01*
Y172500D01*
X252500Y172000D01*
X251001D01*
X252000D02*
X253000Y171001D01*
X254000Y173500D02*
X254500Y174000D01*
X255499D01*
X255999Y173500D01*
Y173000D01*
X255499Y172500D01*
X255999Y172000D01*
Y171500D01*
X255499Y171001D01*
X254500D01*
X254000Y171500D01*
Y172000D01*
X254500Y172500D01*
X254000Y173000D01*
Y173500D01*
X254500Y172500D02*
X255499D01*
X241000Y158500D02*
X240500Y159000D01*
X239501D01*
X239001Y158500D01*
Y156500D01*
X239501Y156000D01*
X240500D01*
X241000Y156500D01*
X243999Y156000D02*
X242000D01*
X243999Y158000D01*
Y158500D01*
X243499Y159000D01*
X242500D01*
X242000Y158500D01*
X275251Y129000D02*
Y132000D01*
X276751D01*
X277251Y131500D01*
Y130500D01*
X276751Y130000D01*
X275251D01*
X276251D02*
X277251Y129000D01*
X278250D02*
X279250D01*
X278750D01*
Y132000D01*
X278250Y131500D01*
X282749Y129000D02*
X280749D01*
X282749Y131000D01*
Y131500D01*
X282249Y132000D01*
X281249D01*
X280749Y131500D01*
X319500Y171000D02*
X319001Y170500D01*
Y169501D01*
X319500Y169001D01*
X321500D01*
X322000Y169501D01*
Y170500D01*
X321500Y171000D01*
X319500Y172000D02*
X319001Y172500D01*
Y173499D01*
X319500Y173999D01*
X320000D01*
X320500Y173499D01*
Y173000D01*
Y173499D01*
X321000Y173999D01*
X321500D01*
X322000Y173499D01*
Y172500D01*
X321500Y172000D01*
X304000Y131249D02*
X306999D01*
Y129749D01*
X306500Y129249D01*
X305500D01*
X305000Y129749D01*
Y131249D01*
Y130249D02*
X304000Y129249D01*
Y128250D02*
Y127250D01*
Y127750D01*
X306999D01*
X306500Y128250D01*
Y125751D02*
X306999Y125251D01*
Y124251D01*
X306500Y123751D01*
X304500D01*
X304000Y124251D01*
Y125251D01*
X304500Y125751D01*
X306500D01*
X247500Y119500D02*
X247000Y120000D01*
X246001D01*
X245501Y119500D01*
Y117500D01*
X246001Y117000D01*
X247000D01*
X247500Y117500D01*
X249999Y117000D02*
Y120000D01*
X248500Y118500D01*
X250499D01*
X142501Y103999D02*
Y101500D01*
X143000Y101000D01*
X144000D01*
X144500Y101500D01*
Y103999D01*
X145500Y101000D02*
X146499D01*
X146000D01*
Y103999D01*
X145500Y103500D01*
X224501Y122500D02*
Y120000D01*
X225001Y119501D01*
X226000D01*
X226500Y120000D01*
Y122500D01*
X229499Y119501D02*
X227500D01*
X229499Y121500D01*
Y122000D01*
X228999Y122500D01*
X228000D01*
X227500Y122000D01*
X123751Y143000D02*
Y146000D01*
X125251D01*
X125750Y145500D01*
Y144500D01*
X125251Y144000D01*
X123751D01*
X124751D02*
X125750Y143000D01*
X126750D02*
X127750D01*
X127250D01*
Y146000D01*
X126750Y145500D01*
X129249Y143000D02*
X130249D01*
X129749D01*
Y146000D01*
X129249Y145500D01*
X186001Y159501D02*
Y162499D01*
X187500D01*
X188000Y162000D01*
Y161000D01*
X187500Y160500D01*
X186001D01*
X187001D02*
X188000Y159501D01*
X189000Y162499D02*
X190999D01*
Y162000D01*
X189000Y160000D01*
Y159501D01*
X169752Y102051D02*
Y105051D01*
X171252D01*
X171752Y104551D01*
Y103551D01*
X171252Y103051D01*
X169752D01*
X170752D02*
X171752Y102051D01*
X174751Y105051D02*
X173751Y104551D01*
X172751Y103551D01*
Y102551D01*
X173251Y102051D01*
X174251D01*
X174751Y102551D01*
Y103051D01*
X174251Y103551D01*
X172751D01*
X158501Y102000D02*
Y104999D01*
X160000D01*
X160500Y104500D01*
Y103500D01*
X160000Y103000D01*
X158501D01*
X159501D02*
X160500Y102000D01*
X163499Y104999D02*
X161500D01*
Y103500D01*
X162499Y104000D01*
X162999D01*
X163499Y103500D01*
Y102500D01*
X162999Y102000D01*
X162000D01*
X161500Y102500D01*
X158001Y136001D02*
Y138999D01*
X159500D01*
X160000Y138500D01*
Y137500D01*
X159500Y137000D01*
X158001D01*
X159001D02*
X160000Y136001D01*
X162499D02*
Y138999D01*
X161000Y137500D01*
X162999D01*
X117001Y101000D02*
Y103999D01*
X118500D01*
X119000Y103500D01*
Y102500D01*
X118500Y102000D01*
X117001D01*
X118000D02*
X119000Y101000D01*
X120000Y103500D02*
X120500Y103999D01*
X121499D01*
X121999Y103500D01*
Y103000D01*
X121499Y102500D01*
X121000D01*
X121499D01*
X121999Y102000D01*
Y101500D01*
X121499Y101000D01*
X120500D01*
X120000Y101500D01*
X124001Y113001D02*
Y115999D01*
X125500D01*
X126000Y115500D01*
Y114500D01*
X125500Y114000D01*
X124001D01*
X125001D02*
X126000Y113001D01*
X128999D02*
X127000D01*
X128999Y115000D01*
Y115500D01*
X128499Y115999D01*
X127500D01*
X127000Y115500D01*
X117501Y143500D02*
Y146500D01*
X119000D01*
X119500Y146000D01*
Y145000D01*
X119000Y144500D01*
X117501D01*
X118500D02*
X119500Y143500D01*
X120500D02*
X121499D01*
X121000D01*
Y146500D01*
X120500Y146000D01*
X115000Y168500D02*
X114000D01*
X114500D01*
Y166000D01*
X114000Y165500D01*
X113500D01*
X113001Y166000D01*
X116000Y165500D02*
X116999D01*
X116499D01*
Y168500D01*
X116000Y168000D01*
X132500Y171000D02*
X132000Y171500D01*
X131000D01*
X130501Y171000D01*
Y169000D01*
X131000Y168500D01*
X132000D01*
X132500Y169000D01*
X133500Y168500D02*
X134499D01*
X134000D01*
Y171500D01*
X133500Y171000D01*
M02*
