G04*
G04 #@! TF.GenerationSoftware,Altium Limited,Altium Designer,23.11.1 (41)*
G04*
G04 Layer_Physical_Order=2*
G04 Layer_Color=16711680*
%FSLAX25Y25*%
%MOIN*%
G70*
G04*
G04 #@! TF.SameCoordinates,116AF878-A71F-484F-92B7-8D16203D6036*
G04*
G04*
G04 #@! TF.FilePolarity,Positive*
G04*
G01*
G75*
%ADD18C,0.04921*%
%ADD19R,0.04921X0.04921*%
%ADD24R,0.05118X0.05118*%
%ADD25C,0.05118*%
%ADD26R,0.04724X0.04724*%
%ADD27C,0.04724*%
%ADD28R,0.04921X0.04921*%
%ADD30R,0.05118X0.05118*%
%ADD31C,0.06181*%
%ADD32R,0.06181X0.06181*%
%ADD38C,0.05906*%
%ADD39R,0.05906X0.05906*%
%ADD40R,0.05906X0.05906*%
%ADD41C,0.05000*%
G36*
X353000Y100000D02*
X100000D01*
Y182000D01*
X353000D01*
Y100000D01*
D02*
G37*
%LPC*%
G36*
X293961Y177646D02*
X287039D01*
Y170724D01*
X293961D01*
Y177646D01*
D02*
G37*
G36*
X278956D02*
X278044D01*
X277164Y177410D01*
X276375Y176954D01*
X275731Y176310D01*
X275275Y175521D01*
X275039Y174641D01*
Y173729D01*
X275275Y172849D01*
X275731Y172060D01*
X276375Y171416D01*
X277164Y170960D01*
X278044Y170724D01*
X278956D01*
X279836Y170960D01*
X280625Y171416D01*
X281269Y172060D01*
X281725Y172849D01*
X281961Y173729D01*
Y174641D01*
X281725Y175521D01*
X281269Y176310D01*
X280625Y176954D01*
X279836Y177410D01*
X278956Y177646D01*
D02*
G37*
G36*
X269961D02*
X263039D01*
Y170724D01*
X269961D01*
Y177646D01*
D02*
G37*
G36*
X307943Y174705D02*
X307057D01*
X306202Y174476D01*
X305436Y174033D01*
X304810Y173407D01*
X304367Y172640D01*
X304138Y171785D01*
Y170900D01*
X304367Y170045D01*
X304810Y169278D01*
X305436Y168652D01*
X306202Y168209D01*
X307057Y167980D01*
X307943D01*
X308798Y168209D01*
X309564Y168652D01*
X310190Y169278D01*
X310633Y170045D01*
X310862Y170900D01*
Y171785D01*
X310633Y172640D01*
X310190Y173407D01*
X309564Y174033D01*
X308798Y174476D01*
X307943Y174705D01*
D02*
G37*
G36*
X109538Y163091D02*
X108461D01*
X107421Y162812D01*
X106488Y162273D01*
X105727Y161512D01*
X105188Y160579D01*
X104909Y159538D01*
Y158461D01*
X105188Y157421D01*
X105727Y156488D01*
X106488Y155727D01*
X107421Y155188D01*
X108461Y154909D01*
X109538D01*
X110579Y155188D01*
X111512Y155727D01*
X112273Y156488D01*
X112812Y157421D01*
X113091Y158461D01*
Y159538D01*
X112812Y160579D01*
X112273Y161512D01*
X111512Y162273D01*
X110579Y162812D01*
X109538Y163091D01*
D02*
G37*
G36*
X310862Y155020D02*
X308000D01*
Y152157D01*
X310862D01*
Y155020D01*
D02*
G37*
G36*
X307000D02*
X304138D01*
Y152157D01*
X307000D01*
Y155020D01*
D02*
G37*
G36*
X158449Y158559D02*
X151331D01*
Y151441D01*
X158449D01*
Y158559D01*
D02*
G37*
G36*
X141579D02*
X140642D01*
X139736Y158317D01*
X138925Y157848D01*
X138262Y157185D01*
X137794Y156374D01*
X137551Y155469D01*
Y154531D01*
X137794Y153626D01*
X138262Y152815D01*
X138925Y152152D01*
X139736Y151683D01*
X140642Y151441D01*
X141579D01*
X142484Y151683D01*
X143296Y152152D01*
X143958Y152815D01*
X144427Y153626D01*
X144669Y154531D01*
Y155469D01*
X144427Y156374D01*
X143958Y157185D01*
X143296Y157848D01*
X142484Y158317D01*
X141579Y158559D01*
D02*
G37*
G36*
X225641Y155961D02*
X224729D01*
X223849Y155725D01*
X223060Y155269D01*
X222416Y154625D01*
X221960Y153836D01*
X221724Y152956D01*
Y152044D01*
X221960Y151164D01*
X222416Y150375D01*
X223060Y149731D01*
X223849Y149275D01*
X224729Y149039D01*
X225641D01*
X226521Y149275D01*
X227310Y149731D01*
X227954Y150375D01*
X228410Y151164D01*
X228646Y152044D01*
Y152956D01*
X228410Y153836D01*
X227954Y154625D01*
X227310Y155269D01*
X226521Y155725D01*
X225641Y155961D01*
D02*
G37*
G36*
X189276D02*
X182354D01*
Y149039D01*
X189276D01*
Y155961D01*
D02*
G37*
G36*
X175961Y155646D02*
X169039D01*
Y148724D01*
X175961D01*
Y155646D01*
D02*
G37*
G36*
X310862Y151157D02*
X308000D01*
Y148295D01*
X310862D01*
Y151157D01*
D02*
G37*
G36*
X307000D02*
X304138D01*
Y148295D01*
X307000D01*
Y151157D01*
D02*
G37*
G36*
X109538Y153091D02*
X108461D01*
X107421Y152812D01*
X106488Y152273D01*
X105727Y151512D01*
X105188Y150579D01*
X104909Y149539D01*
Y148461D01*
X105188Y147421D01*
X105727Y146488D01*
X106488Y145727D01*
X107421Y145188D01*
X108461Y144909D01*
X109538D01*
X110579Y145188D01*
X111512Y145727D01*
X112273Y146488D01*
X112812Y147421D01*
X113091Y148461D01*
Y149539D01*
X112812Y150579D01*
X112273Y151512D01*
X111512Y152273D01*
X110579Y152812D01*
X109538Y153091D01*
D02*
G37*
G36*
X314020Y145453D02*
X314000D01*
Y142000D01*
X317453D01*
Y142020D01*
X317183Y143026D01*
X316663Y143927D01*
X315927Y144663D01*
X315026Y145183D01*
X314020Y145453D01*
D02*
G37*
G36*
X313000D02*
X312980D01*
X311974Y145183D01*
X311073Y144663D01*
X310337Y143927D01*
X309817Y143026D01*
X309547Y142020D01*
Y142000D01*
X313000D01*
Y145453D01*
D02*
G37*
G36*
X241969Y147949D02*
X241031D01*
X240126Y147706D01*
X239315Y147238D01*
X238652Y146575D01*
X238183Y145764D01*
X237941Y144858D01*
Y143921D01*
X238183Y143016D01*
X238652Y142204D01*
X239315Y141542D01*
X240126Y141073D01*
X241031Y140831D01*
X241969D01*
X242874Y141073D01*
X243685Y141542D01*
X244348Y142204D01*
X244816Y143016D01*
X245059Y143921D01*
Y144858D01*
X244816Y145764D01*
X244348Y146575D01*
X243685Y147238D01*
X242874Y147706D01*
X241969Y147949D01*
D02*
G37*
G36*
X109538Y143091D02*
X109500D01*
Y139500D01*
X113091D01*
Y139539D01*
X112812Y140579D01*
X112273Y141512D01*
X111512Y142273D01*
X110579Y142812D01*
X109538Y143091D01*
D02*
G37*
G36*
X108500D02*
X108461D01*
X107421Y142812D01*
X106488Y142273D01*
X105727Y141512D01*
X105188Y140579D01*
X104909Y139539D01*
Y139500D01*
X108500D01*
Y143091D01*
D02*
G37*
G36*
X347453Y145453D02*
X339547D01*
Y137547D01*
X347453D01*
Y145453D01*
D02*
G37*
G36*
X334020D02*
X332980D01*
X331974Y145183D01*
X331073Y144663D01*
X330337Y143927D01*
X329817Y143026D01*
X329547Y142020D01*
Y140980D01*
X329817Y139974D01*
X330337Y139073D01*
X331073Y138337D01*
X331974Y137817D01*
X332980Y137547D01*
X334020D01*
X335026Y137817D01*
X335927Y138337D01*
X336663Y139073D01*
X337183Y139974D01*
X337453Y140980D01*
Y142020D01*
X337183Y143026D01*
X336663Y143927D01*
X335927Y144663D01*
X335026Y145183D01*
X334020Y145453D01*
D02*
G37*
G36*
X324020D02*
X322980D01*
X321974Y145183D01*
X321073Y144663D01*
X320337Y143927D01*
X319817Y143026D01*
X319547Y142020D01*
Y140980D01*
X319817Y139974D01*
X320337Y139073D01*
X321073Y138337D01*
X321974Y137817D01*
X322980Y137547D01*
X324020D01*
X325026Y137817D01*
X325927Y138337D01*
X326663Y139073D01*
X327183Y139974D01*
X327453Y140980D01*
Y142020D01*
X327183Y143026D01*
X326663Y143927D01*
X325927Y144663D01*
X325026Y145183D01*
X324020Y145453D01*
D02*
G37*
G36*
X317453Y141000D02*
X314000D01*
Y137547D01*
X314020D01*
X315026Y137817D01*
X315927Y138337D01*
X316663Y139073D01*
X317183Y139974D01*
X317453Y140980D01*
Y141000D01*
D02*
G37*
G36*
X313000D02*
X309547D01*
Y140980D01*
X309817Y139974D01*
X310337Y139073D01*
X311073Y138337D01*
X311974Y137817D01*
X312980Y137547D01*
X313000D01*
Y141000D01*
D02*
G37*
G36*
X218520Y143453D02*
X217480D01*
X216474Y143183D01*
X215573Y142663D01*
X214837Y141927D01*
X214317Y141026D01*
X214047Y140020D01*
Y138980D01*
X214317Y137974D01*
X214837Y137073D01*
X215573Y136337D01*
X216474Y135817D01*
X217480Y135547D01*
X218520D01*
X219526Y135817D01*
X220427Y136337D01*
X221163Y137073D01*
X221683Y137974D01*
X221953Y138980D01*
Y140020D01*
X221683Y141026D01*
X221163Y141927D01*
X220427Y142663D01*
X219526Y143183D01*
X218520Y143453D01*
D02*
G37*
G36*
X191953D02*
X184047D01*
Y135547D01*
X191953D01*
Y143453D01*
D02*
G37*
G36*
X113091Y138500D02*
X109500D01*
Y134909D01*
X109538D01*
X110579Y135188D01*
X111512Y135727D01*
X112273Y136488D01*
X112812Y137421D01*
X113091Y138461D01*
Y138500D01*
D02*
G37*
G36*
X108500D02*
X104909D01*
Y138461D01*
X105188Y137421D01*
X105727Y136488D01*
X106488Y135727D01*
X107421Y135188D01*
X108461Y134909D01*
X108500D01*
Y138500D01*
D02*
G37*
G36*
X290956Y138276D02*
X290044D01*
X289164Y138040D01*
X288375Y137584D01*
X287731Y136940D01*
X287275Y136151D01*
X287039Y135271D01*
Y134359D01*
X287275Y133479D01*
X287731Y132690D01*
X288375Y132046D01*
X289164Y131590D01*
X290044Y131354D01*
X290956D01*
X291836Y131590D01*
X292625Y132046D01*
X293269Y132690D01*
X293725Y133479D01*
X293961Y134359D01*
Y135271D01*
X293725Y136151D01*
X293269Y136940D01*
X292625Y137584D01*
X291836Y138040D01*
X290956Y138276D01*
D02*
G37*
G36*
X281961D02*
X275039D01*
Y131354D01*
X281961D01*
Y138276D01*
D02*
G37*
G36*
X266956D02*
X266044D01*
X265164Y138040D01*
X264375Y137584D01*
X263731Y136940D01*
X263275Y136151D01*
X263039Y135271D01*
Y134359D01*
X263275Y133479D01*
X263731Y132690D01*
X264375Y132046D01*
X265164Y131590D01*
X266044Y131354D01*
X266956D01*
X267836Y131590D01*
X268625Y132046D01*
X269269Y132690D01*
X269725Y133479D01*
X269961Y134359D01*
Y135271D01*
X269725Y136151D01*
X269269Y136940D01*
X268625Y137584D01*
X267836Y138040D01*
X266956Y138276D01*
D02*
G37*
G36*
X245059Y134169D02*
X237941D01*
Y127051D01*
X245059D01*
Y134169D01*
D02*
G37*
G36*
X218520Y133453D02*
X217480D01*
X216474Y133183D01*
X215573Y132663D01*
X214837Y131927D01*
X214317Y131026D01*
X214047Y130020D01*
Y128980D01*
X214317Y127974D01*
X214837Y127073D01*
X215573Y126337D01*
X216474Y125817D01*
X217480Y125547D01*
X218520D01*
X219526Y125817D01*
X220427Y126337D01*
X221163Y127073D01*
X221683Y127974D01*
X221953Y128980D01*
Y130020D01*
X221683Y131026D01*
X221163Y131927D01*
X220427Y132663D01*
X219526Y133183D01*
X218520Y133453D01*
D02*
G37*
G36*
X188520D02*
X187480D01*
X186474Y133183D01*
X185573Y132663D01*
X184837Y131927D01*
X184317Y131026D01*
X184047Y130020D01*
Y128980D01*
X184317Y127974D01*
X184837Y127073D01*
X185573Y126337D01*
X186474Y125817D01*
X187480Y125547D01*
X188520D01*
X189526Y125817D01*
X190427Y126337D01*
X191163Y127073D01*
X191683Y127974D01*
X191953Y128980D01*
Y130020D01*
X191683Y131026D01*
X191163Y131927D01*
X190427Y132663D01*
X189526Y133183D01*
X188520Y133453D01*
D02*
G37*
G36*
X109538Y133091D02*
X108461D01*
X107421Y132812D01*
X106488Y132273D01*
X105727Y131512D01*
X105188Y130579D01*
X104909Y129539D01*
Y128462D01*
X105188Y127421D01*
X105727Y126488D01*
X106488Y125727D01*
X107421Y125188D01*
X108461Y124909D01*
X109538D01*
X110579Y125188D01*
X111512Y125727D01*
X112273Y126488D01*
X112812Y127421D01*
X113091Y128462D01*
Y129539D01*
X112812Y130579D01*
X112273Y131512D01*
X111512Y132273D01*
X110579Y132812D01*
X109538Y133091D01*
D02*
G37*
G36*
X300641Y126961D02*
X299729D01*
X298849Y126725D01*
X298060Y126269D01*
X297416Y125625D01*
X296960Y124836D01*
X296724Y123956D01*
Y123044D01*
X296960Y122164D01*
X297416Y121375D01*
X298060Y120731D01*
X298849Y120275D01*
X299729Y120039D01*
X300641D01*
X301521Y120275D01*
X302310Y120731D01*
X302954Y121375D01*
X303410Y122164D01*
X303646Y123044D01*
Y123956D01*
X303410Y124836D01*
X302954Y125625D01*
X302310Y126269D01*
X301521Y126725D01*
X300641Y126961D01*
D02*
G37*
G36*
X264276D02*
X257354D01*
Y120039D01*
X264276D01*
Y126961D01*
D02*
G37*
G36*
X218520Y123453D02*
X217480D01*
X216474Y123183D01*
X215573Y122663D01*
X214837Y121927D01*
X214317Y121026D01*
X214047Y120020D01*
Y118980D01*
X214317Y117974D01*
X214837Y117073D01*
X215573Y116337D01*
X216474Y115817D01*
X217480Y115547D01*
X218520D01*
X219526Y115817D01*
X220427Y116337D01*
X221163Y117073D01*
X221683Y117974D01*
X221953Y118980D01*
Y120020D01*
X221683Y121026D01*
X221163Y121927D01*
X220427Y122663D01*
X219526Y123183D01*
X218520Y123453D01*
D02*
G37*
G36*
X188520D02*
X187480D01*
X186474Y123183D01*
X185573Y122663D01*
X184837Y121927D01*
X184317Y121026D01*
X184047Y120020D01*
Y118980D01*
X184317Y117974D01*
X184837Y117073D01*
X185573Y116337D01*
X186474Y115817D01*
X187480Y115547D01*
X188520D01*
X189526Y115817D01*
X190427Y116337D01*
X191163Y117073D01*
X191683Y117974D01*
X191953Y118980D01*
Y120020D01*
X191683Y121026D01*
X191163Y121927D01*
X190427Y122663D01*
X189526Y123183D01*
X188520Y123453D01*
D02*
G37*
G36*
X109538Y123091D02*
X108461D01*
X107421Y122812D01*
X106488Y122273D01*
X105727Y121512D01*
X105188Y120579D01*
X104909Y119538D01*
Y118462D01*
X105188Y117421D01*
X105727Y116488D01*
X106488Y115727D01*
X107421Y115188D01*
X108461Y114909D01*
X109538D01*
X110579Y115188D01*
X111512Y115727D01*
X112273Y116488D01*
X112812Y117421D01*
X113091Y118462D01*
Y119538D01*
X112812Y120579D01*
X112273Y121512D01*
X111512Y122273D01*
X110579Y122812D01*
X109538Y123091D01*
D02*
G37*
G36*
X188520Y113453D02*
X188500D01*
Y110000D01*
X191953D01*
Y110020D01*
X191683Y111026D01*
X191163Y111927D01*
X190427Y112663D01*
X189526Y113183D01*
X188520Y113453D01*
D02*
G37*
G36*
X187500D02*
X187480D01*
X186474Y113183D01*
X185573Y112663D01*
X184837Y111927D01*
X184317Y111026D01*
X184047Y110020D01*
Y110000D01*
X187500D01*
Y113453D01*
D02*
G37*
G36*
X172956Y116276D02*
X172044D01*
X171164Y116040D01*
X170375Y115584D01*
X169731Y114940D01*
X169275Y114151D01*
X169039Y113271D01*
Y112359D01*
X169275Y111479D01*
X169731Y110690D01*
X170375Y110046D01*
X171164Y109590D01*
X172044Y109354D01*
X172956D01*
X173836Y109590D01*
X174625Y110046D01*
X175269Y110690D01*
X175725Y111479D01*
X175961Y112359D01*
Y113271D01*
X175725Y114151D01*
X175269Y114940D01*
X174625Y115584D01*
X173836Y116040D01*
X172956Y116276D01*
D02*
G37*
G36*
X344020Y115453D02*
X342980D01*
X341974Y115183D01*
X341073Y114663D01*
X340337Y113927D01*
X339817Y113026D01*
X339547Y112020D01*
Y110980D01*
X339817Y109974D01*
X340337Y109073D01*
X341073Y108337D01*
X341974Y107817D01*
X342980Y107547D01*
X344020D01*
X345026Y107817D01*
X345927Y108337D01*
X346663Y109073D01*
X347183Y109974D01*
X347453Y110980D01*
Y112020D01*
X347183Y113026D01*
X346663Y113927D01*
X345927Y114663D01*
X345026Y115183D01*
X344020Y115453D01*
D02*
G37*
G36*
X334020D02*
X332980D01*
X331974Y115183D01*
X331073Y114663D01*
X330337Y113927D01*
X329817Y113026D01*
X329547Y112020D01*
Y110980D01*
X329817Y109974D01*
X330337Y109073D01*
X331073Y108337D01*
X331974Y107817D01*
X332980Y107547D01*
X334020D01*
X335026Y107817D01*
X335927Y108337D01*
X336663Y109073D01*
X337183Y109974D01*
X337453Y110980D01*
Y112020D01*
X337183Y113026D01*
X336663Y113927D01*
X335927Y114663D01*
X335026Y115183D01*
X334020Y115453D01*
D02*
G37*
G36*
X324020D02*
X322980D01*
X321974Y115183D01*
X321073Y114663D01*
X320337Y113927D01*
X319817Y113026D01*
X319547Y112020D01*
Y110980D01*
X319817Y109974D01*
X320337Y109073D01*
X321073Y108337D01*
X321974Y107817D01*
X322980Y107547D01*
X324020D01*
X325026Y107817D01*
X325927Y108337D01*
X326663Y109073D01*
X327183Y109974D01*
X327453Y110980D01*
Y112020D01*
X327183Y113026D01*
X326663Y113927D01*
X325927Y114663D01*
X325026Y115183D01*
X324020Y115453D01*
D02*
G37*
G36*
X314020D02*
X312980D01*
X311974Y115183D01*
X311073Y114663D01*
X310337Y113927D01*
X309817Y113026D01*
X309547Y112020D01*
Y110980D01*
X309817Y109974D01*
X310337Y109073D01*
X311073Y108337D01*
X311974Y107817D01*
X312980Y107547D01*
X314020D01*
X315026Y107817D01*
X315927Y108337D01*
X316663Y109073D01*
X317183Y109974D01*
X317453Y110980D01*
Y112020D01*
X317183Y113026D01*
X316663Y113927D01*
X315927Y114663D01*
X315026Y115183D01*
X314020Y115453D01*
D02*
G37*
G36*
X166500Y110489D02*
Y107500D01*
X169490D01*
X169262Y108351D01*
X168801Y109149D01*
X168149Y109801D01*
X167351Y110261D01*
X166500Y110489D01*
D02*
G37*
G36*
X165500D02*
X164649Y110261D01*
X163851Y109801D01*
X163199Y109149D01*
X162739Y108351D01*
X162511Y107500D01*
X165500D01*
Y110489D01*
D02*
G37*
G36*
X270469Y113059D02*
X269531D01*
X268626Y112817D01*
X267815Y112348D01*
X267152Y111685D01*
X266684Y110874D01*
X266441Y109969D01*
Y109031D01*
X266684Y108126D01*
X267152Y107315D01*
X267815Y106652D01*
X268626Y106184D01*
X269531Y105941D01*
X270469D01*
X271374Y106184D01*
X272185Y106652D01*
X272848Y107315D01*
X273317Y108126D01*
X273559Y109031D01*
Y109969D01*
X273317Y110874D01*
X272848Y111685D01*
X272185Y112348D01*
X271374Y112817D01*
X270469Y113059D01*
D02*
G37*
G36*
X263559D02*
X256441D01*
Y105941D01*
X263559D01*
Y113059D01*
D02*
G37*
G36*
X246469D02*
X245531D01*
X244626Y112817D01*
X243815Y112348D01*
X243152Y111685D01*
X242684Y110874D01*
X242441Y109969D01*
Y109031D01*
X242684Y108126D01*
X243152Y107315D01*
X243815Y106652D01*
X244626Y106184D01*
X245531Y105941D01*
X246469D01*
X247374Y106184D01*
X248185Y106652D01*
X248848Y107315D01*
X249317Y108126D01*
X249559Y109031D01*
Y109969D01*
X249317Y110874D01*
X248848Y111685D01*
X248185Y112348D01*
X247374Y112817D01*
X246469Y113059D01*
D02*
G37*
G36*
X239559D02*
X232441D01*
Y105941D01*
X239559D01*
Y113059D01*
D02*
G37*
G36*
X218520Y113453D02*
X217480D01*
X216474Y113183D01*
X215573Y112663D01*
X214837Y111927D01*
X214317Y111026D01*
X214047Y110020D01*
Y108980D01*
X214317Y107974D01*
X214837Y107073D01*
X215573Y106337D01*
X216474Y105817D01*
X217480Y105547D01*
X218520D01*
X219526Y105817D01*
X220427Y106337D01*
X221163Y107073D01*
X221683Y107974D01*
X221953Y108980D01*
Y110020D01*
X221683Y111026D01*
X221163Y111927D01*
X220427Y112663D01*
X219526Y113183D01*
X218520Y113453D01*
D02*
G37*
G36*
X191953Y109000D02*
X188500D01*
Y105547D01*
X188520D01*
X189526Y105817D01*
X190427Y106337D01*
X191163Y107073D01*
X191683Y107974D01*
X191953Y108980D01*
Y109000D01*
D02*
G37*
G36*
X187500D02*
X184047D01*
Y108980D01*
X184317Y107974D01*
X184837Y107073D01*
X185573Y106337D01*
X186474Y105817D01*
X187480Y105547D01*
X187500D01*
Y109000D01*
D02*
G37*
G36*
X151000Y108490D02*
Y105500D01*
X153990D01*
X153761Y106351D01*
X153301Y107149D01*
X152649Y107801D01*
X151851Y108262D01*
X151000Y108490D01*
D02*
G37*
G36*
X150000D02*
X149149Y108262D01*
X148351Y107801D01*
X147699Y107149D01*
X147239Y106351D01*
X147011Y105500D01*
X150000D01*
Y108490D01*
D02*
G37*
G36*
X113091Y113091D02*
X104909D01*
Y104909D01*
X113091D01*
Y113091D01*
D02*
G37*
G36*
X169490Y106500D02*
X166500D01*
Y103510D01*
X167351Y103738D01*
X168149Y104199D01*
X168801Y104851D01*
X169262Y105649D01*
X169490Y106500D01*
D02*
G37*
G36*
X165500D02*
X162511D01*
X162739Y105649D01*
X163199Y104851D01*
X163851Y104199D01*
X164649Y103738D01*
X165500Y103510D01*
Y106500D01*
D02*
G37*
G36*
X153990Y104500D02*
X151000D01*
Y101511D01*
X151851Y101739D01*
X152649Y102199D01*
X153301Y102851D01*
X153761Y103649D01*
X153990Y104500D01*
D02*
G37*
G36*
X150000D02*
X147011D01*
X147239Y103649D01*
X147699Y102851D01*
X148351Y102199D01*
X149149Y101739D01*
X150000Y101511D01*
Y104500D01*
D02*
G37*
%LPD*%
D18*
X290500Y134815D02*
D03*
X266500D02*
D03*
X278500Y174185D02*
D03*
X300185Y123500D02*
D03*
X225185Y152500D02*
D03*
X172500Y112815D02*
D03*
D19*
X290500Y174185D02*
D03*
X266500D02*
D03*
X278500Y134815D02*
D03*
X172500Y152185D02*
D03*
D24*
X241500Y130610D02*
D03*
D25*
X270000Y109500D02*
D03*
X241500Y144390D02*
D03*
X246000Y109500D02*
D03*
X141110Y155000D02*
D03*
D26*
X307500Y151657D02*
D03*
D27*
Y171343D02*
D03*
D28*
X260815Y123500D02*
D03*
X185815Y152500D02*
D03*
D30*
X260000Y109500D02*
D03*
X236000D02*
D03*
X154890Y155000D02*
D03*
D31*
X109000Y159000D02*
D03*
Y149000D02*
D03*
Y139000D02*
D03*
Y129000D02*
D03*
Y119000D02*
D03*
D32*
Y109000D02*
D03*
D38*
X313500Y111500D02*
D03*
X323500D02*
D03*
X333500D02*
D03*
X343500D02*
D03*
X313500Y141500D02*
D03*
X323500D02*
D03*
X333500D02*
D03*
X188000Y129500D02*
D03*
Y119500D02*
D03*
Y109500D02*
D03*
X218000Y139500D02*
D03*
Y129500D02*
D03*
Y119500D02*
D03*
Y109500D02*
D03*
D39*
X343500Y141500D02*
D03*
D40*
X188000Y139500D02*
D03*
D41*
X150500Y105000D02*
D03*
X166000Y107000D02*
D03*
M02*
