G04*
G04 #@! TF.GenerationSoftware,Altium Limited,Altium Designer,23.11.1 (41)*
G04*
G04 Layer_Physical_Order=1*
G04 Layer_Color=255*
%FSLAX25Y25*%
%MOIN*%
G70*
G04*
G04 #@! TF.SameCoordinates,116AF878-A71F-484F-92B7-8D16203D6036*
G04*
G04*
G04 #@! TF.FilePolarity,Positive*
G04*
G01*
G75*
%ADD18C,0.04921*%
%ADD19R,0.04921X0.04921*%
%ADD24R,0.05118X0.05118*%
%ADD25C,0.05118*%
%ADD26R,0.04724X0.04724*%
%ADD27C,0.04724*%
%ADD28R,0.04921X0.04921*%
%ADD30R,0.05118X0.05118*%
%ADD31C,0.06181*%
%ADD32R,0.06181X0.06181*%
%ADD34C,0.01000*%
G04:AMPARAMS|DCode=35|XSize=23.62mil|YSize=57.09mil|CornerRadius=2.01mil|HoleSize=0mil|Usage=FLASHONLY|Rotation=180.000|XOffset=0mil|YOffset=0mil|HoleType=Round|Shape=RoundedRectangle|*
%AMROUNDEDRECTD35*
21,1,0.02362,0.05307,0,0,180.0*
21,1,0.01961,0.05709,0,0,180.0*
1,1,0.00402,-0.00980,0.02653*
1,1,0.00402,0.00980,0.02653*
1,1,0.00402,0.00980,-0.02653*
1,1,0.00402,-0.00980,-0.02653*
%
%ADD35ROUNDEDRECTD35*%
%ADD36R,0.04724X0.05512*%
%ADD37R,0.05512X0.04724*%
%ADD38C,0.05906*%
%ADD39R,0.05906X0.05906*%
%ADD40R,0.05906X0.05906*%
%ADD41C,0.05000*%
D18*
X290500Y134815D02*
D03*
X266500D02*
D03*
X278500Y174185D02*
D03*
X300185Y123500D02*
D03*
X225185Y152500D02*
D03*
X172500Y112815D02*
D03*
D19*
X290500Y174185D02*
D03*
X266500D02*
D03*
X278500Y134815D02*
D03*
X172500Y152185D02*
D03*
D24*
X241500Y130610D02*
D03*
D25*
X270000Y109500D02*
D03*
X241500Y144390D02*
D03*
X246000Y109500D02*
D03*
X141110Y155000D02*
D03*
D26*
X307500Y151657D02*
D03*
D27*
Y171343D02*
D03*
D28*
X260815Y123500D02*
D03*
X185815Y152500D02*
D03*
D30*
X260000Y109500D02*
D03*
X236000D02*
D03*
X154890Y155000D02*
D03*
D31*
X109000Y159000D02*
D03*
Y149000D02*
D03*
Y139000D02*
D03*
Y129000D02*
D03*
Y119000D02*
D03*
D32*
Y109000D02*
D03*
D34*
X184288Y113778D02*
X184000Y113500D01*
X151835Y107417D02*
Y111607D01*
X150500Y106082D02*
X151835Y107417D01*
X150500Y105000D02*
Y106082D01*
X151835Y111607D02*
X152000Y111772D01*
X164437Y102000D02*
X176297D01*
X179345Y105047D01*
X161390D02*
X164437Y102000D01*
X161362Y108095D02*
X163823D01*
X164918Y107000D01*
X166000D01*
X159500Y109957D02*
X161362Y108095D01*
X157170Y105047D02*
X161390D01*
X184288Y113778D02*
X185103Y114500D01*
X184275Y116500D02*
X188000Y119500D01*
X179345Y105047D02*
Y108591D01*
X185103Y114500D02*
X203000D01*
X174646Y108854D02*
X175474Y108854D01*
X184275Y116500D01*
X179345Y108591D02*
X184000Y113500D01*
X203000Y114500D02*
X218000Y129500D01*
X155244Y106973D02*
X157170Y105047D01*
X170860Y108854D02*
X174646D01*
X168539Y111174D02*
Y114961D01*
Y111174D02*
X170860Y108854D01*
X166457Y117043D02*
X168539Y114961D01*
X159500Y117043D02*
X166457D01*
X126543Y128500D02*
Y128894D01*
X124681Y130756D02*
X126543Y128894D01*
X124440Y130756D02*
X124681D01*
X122440Y132756D02*
X124440Y130756D01*
X115244Y132756D02*
X122440D01*
X109000Y139000D02*
X115244Y132756D01*
X119957Y138106D02*
X125307Y132756D01*
X129527D01*
X109000Y109000D02*
X109000Y109000D01*
X119457D01*
X109000Y119000D02*
X118457D01*
X119457Y120000D01*
X118957Y129000D02*
X119457Y128500D01*
X109000Y129000D02*
X118957D01*
X300185Y123500D02*
X311500D01*
X323500Y111500D01*
X104000Y154000D02*
Y160492D01*
X121654Y178146D01*
X306159D01*
X333500Y150804D01*
Y141500D02*
Y150804D01*
X179345Y105047D02*
X323344D01*
X329047Y110750D01*
X332750D01*
X333500Y111500D01*
Y121500D02*
Y141500D01*
X323500Y111500D02*
X333500Y121500D01*
X270305Y114620D02*
X290500Y134815D01*
X270000Y109500D02*
X270305Y109805D01*
Y114620D01*
X260000Y109500D02*
X260815Y110315D01*
Y123500D01*
X246000Y109500D02*
X260000D01*
X246815Y135925D02*
Y152500D01*
X241500Y130610D02*
X246815Y135925D01*
X219407Y144390D02*
X241500D01*
X211297Y152500D02*
X219407Y144390D01*
X229110Y130610D02*
X241500D01*
X218000Y119500D02*
X229110Y130610D01*
X236000Y125110D02*
X241500Y130610D01*
X236000Y109500D02*
Y125110D01*
X316815Y134815D02*
X323500Y141500D01*
X290500Y134815D02*
X316815D01*
X290500Y174185D02*
X304658D01*
X307500Y171343D01*
X278500Y174185D02*
X290500D01*
X266500Y134815D02*
X278500D01*
X264539Y170224D02*
Y172224D01*
X246815Y152500D02*
X264539Y170224D01*
Y172224D02*
X266500Y174185D01*
X270000Y107500D02*
X270305Y107805D01*
X225185Y152500D02*
X246815D01*
X155244Y120595D02*
X159106Y124457D01*
X159500D01*
X155244Y106973D02*
Y120595D01*
X185815Y152500D02*
X211297D01*
X183547Y133953D02*
X188000Y129500D01*
X183547Y133953D02*
Y143074D01*
X185815Y145342D01*
Y152500D01*
X172500Y113408D02*
X188000Y128908D01*
X172500Y112815D02*
Y113408D01*
X188000Y128908D02*
Y129500D01*
X169685Y155000D02*
X172500Y152185D01*
X154890Y155000D02*
X169685D01*
X141110Y140791D02*
Y155000D01*
Y140791D02*
X147000Y134902D01*
Y133228D02*
Y134902D01*
X117902Y159000D02*
X142000Y134902D01*
X109000Y159000D02*
X117902D01*
X142000Y133228D02*
Y134902D01*
X104000Y154000D02*
X109000Y149000D01*
X163756Y120905D02*
Y127681D01*
X159894Y117043D02*
X163756Y120905D01*
X159500Y131543D02*
X159894D01*
X163756Y127681D01*
X152000Y133228D02*
X157815D01*
X159500Y131543D01*
X157244Y126319D02*
Y126560D01*
X154930Y128874D02*
X157244Y126560D01*
X144681Y128874D02*
X154930D01*
X157244Y126319D02*
X159106Y124457D01*
X142000Y131555D02*
X144681Y128874D01*
X142000Y131555D02*
Y133228D01*
X133402Y138500D02*
X137000Y134902D01*
X127043Y138500D02*
X133402D01*
X137000Y111772D02*
Y125283D01*
X129527Y132756D02*
X137000Y125283D01*
X119957Y138106D02*
Y138500D01*
X126543Y120000D02*
X130703D01*
Y112030D02*
Y120000D01*
X137000Y133228D02*
Y134902D01*
X147000Y110098D02*
Y111772D01*
X142319Y105417D02*
X147000Y110098D01*
X130904Y109000D02*
X134487Y105417D01*
X126543Y109000D02*
X130904D01*
X134487Y105417D02*
X142319D01*
X130703Y112030D02*
X135315Y107417D01*
X139319D01*
X142000Y110098D01*
Y111772D01*
D35*
X137000D02*
D03*
X142000D02*
D03*
X147000D02*
D03*
X152000D02*
D03*
X137000Y133228D02*
D03*
X142000D02*
D03*
X147000D02*
D03*
X152000D02*
D03*
D36*
X127043Y138500D02*
D03*
X119957D02*
D03*
X126543Y120000D02*
D03*
X119457D02*
D03*
X126543Y109000D02*
D03*
X119457D02*
D03*
X126543Y128500D02*
D03*
X119457D02*
D03*
D37*
X159500Y124457D02*
D03*
Y131543D02*
D03*
X159500Y117043D02*
D03*
Y109957D02*
D03*
D38*
X313500Y111500D02*
D03*
X323500D02*
D03*
X333500D02*
D03*
X343500D02*
D03*
X313500Y141500D02*
D03*
X323500D02*
D03*
X333500D02*
D03*
X188000Y129500D02*
D03*
Y119500D02*
D03*
Y109500D02*
D03*
X218000Y139500D02*
D03*
Y129500D02*
D03*
Y119500D02*
D03*
Y109500D02*
D03*
D39*
X343500Y141500D02*
D03*
D40*
X188000Y139500D02*
D03*
D41*
X150500Y105000D02*
D03*
X166000Y107000D02*
D03*
M02*
