M48
;Layer_Color=9474304
;FILE_FORMAT=2:4
INCH,TZ
;TYPE=PLATED
T01F00S00C0.0276
T02F00S00C0.0280
T03F00S00C0.0295
T04F00S00C0.0315
T05F00S00C0.0354
T06F00S00C0.0402
%
T01
X30750Y15166
Y17134
T02
X15050Y10500
X16600Y10700
T03
X17250Y11281
Y15218
X18582Y15250
X22518
X26650Y13482
X27850
X29050
X30018Y12350
X26082
X26650Y17419
X27850
X29050
T04
X14111Y15500
X15489
X24150Y14439
Y13061
X24600Y10950
X23600
X26000
X27000
T05
X18800Y10950
Y11950
Y12950
Y13950
X21800
Y12950
Y11950
Y10950
X31350Y11150
X32350
X33350
X34350
Y14150
X33350
X32350
X31350
T06
X10900Y10900
Y11900
Y12900
Y13900
Y14900
Y15900
M30
