G04*
G04 #@! TF.GenerationSoftware,Altium Limited,Altium Designer,23.11.1 (41)*
G04*
G04 Layer_Color=8388736*
%FSLAX25Y25*%
%MOIN*%
G70*
G04*
G04 #@! TF.SameCoordinates,116AF878-A71F-484F-92B7-8D16203D6036*
G04*
G04*
G04 #@! TF.FilePolarity,Negative*
G04*
G01*
G75*
G04:AMPARAMS|DCode=15|XSize=31.62mil|YSize=65.09mil|CornerRadius=6.01mil|HoleSize=0mil|Usage=FLASHONLY|Rotation=180.000|XOffset=0mil|YOffset=0mil|HoleType=Round|Shape=RoundedRectangle|*
%AMROUNDEDRECTD15*
21,1,0.03162,0.05307,0,0,180.0*
21,1,0.01961,0.06509,0,0,180.0*
1,1,0.01202,-0.00980,0.02653*
1,1,0.01202,0.00980,0.02653*
1,1,0.01202,0.00980,-0.02653*
1,1,0.01202,-0.00980,-0.02653*
%
%ADD15ROUNDEDRECTD15*%
%ADD16R,0.05524X0.06312*%
%ADD17R,0.06312X0.05524*%
%ADD18C,0.04921*%
%ADD19R,0.04921X0.04921*%
%ADD20C,0.06706*%
%ADD21R,0.06706X0.06706*%
%ADD22C,0.05918*%
%ADD23R,0.05918X0.05918*%
%ADD24R,0.05118X0.05118*%
%ADD25C,0.05118*%
%ADD26R,0.04724X0.04724*%
%ADD27C,0.04724*%
%ADD28R,0.04921X0.04921*%
%ADD29R,0.06706X0.06706*%
%ADD30R,0.05118X0.05118*%
%ADD31C,0.06181*%
%ADD32R,0.06181X0.06181*%
%ADD33C,0.05800*%
D15*
X137000Y111772D02*
D03*
X142000D02*
D03*
X147000D02*
D03*
X152000D02*
D03*
X137000Y133228D02*
D03*
X142000D02*
D03*
X147000D02*
D03*
X152000D02*
D03*
D16*
X127043Y138500D02*
D03*
X119957D02*
D03*
X126543Y120000D02*
D03*
X119457D02*
D03*
X126543Y109000D02*
D03*
X119457D02*
D03*
X126543Y128500D02*
D03*
X119457D02*
D03*
D17*
X159500Y124457D02*
D03*
Y131543D02*
D03*
X159500Y117043D02*
D03*
Y109957D02*
D03*
D18*
X290500Y134815D02*
D03*
X266500D02*
D03*
X278500Y174185D02*
D03*
X300185Y123500D02*
D03*
X225185Y152500D02*
D03*
X172500Y112815D02*
D03*
D19*
X290500Y174185D02*
D03*
X266500D02*
D03*
X278500Y134815D02*
D03*
X172500Y152185D02*
D03*
D20*
X313500Y111500D02*
D03*
X323500D02*
D03*
X333500D02*
D03*
X343500D02*
D03*
X313500Y141500D02*
D03*
X323500D02*
D03*
X333500D02*
D03*
X188000Y129500D02*
D03*
Y119500D02*
D03*
Y109500D02*
D03*
X218000Y139500D02*
D03*
Y129500D02*
D03*
Y119500D02*
D03*
Y109500D02*
D03*
D21*
X343500Y141500D02*
D03*
D22*
X270000Y109500D02*
D03*
X246000D02*
D03*
D23*
X260000D02*
D03*
X236000D02*
D03*
D24*
X241500Y130610D02*
D03*
D25*
Y144390D02*
D03*
X141110Y155000D02*
D03*
D26*
X307500Y151657D02*
D03*
D27*
Y171343D02*
D03*
D28*
X260815Y123500D02*
D03*
X185815Y152500D02*
D03*
D29*
X188000Y139500D02*
D03*
D30*
X154890Y155000D02*
D03*
D31*
X109000Y159000D02*
D03*
Y149000D02*
D03*
Y139000D02*
D03*
Y129000D02*
D03*
Y119000D02*
D03*
D32*
Y109000D02*
D03*
D33*
X150500Y105000D02*
D03*
X166000Y107000D02*
D03*
M02*
